<svg xmlns="http://www.w3.org/2000/svg" width="396" height="77" viewBox="0 0 396 77" fill="none"><g clip-path="url(#clip0_45_90)"><path d="M55.2079 40.4011C55.2532 40.3105 55.2758 40.22 55.3211 40.1068L55.0041 39.971C55.072 40.1295 55.14 40.2653 55.2079 40.4011ZM55.3438 43.0266C55.1173 43.5698 54.9135 44.113 54.6871 44.6562C55.072 44.4299 55.4343 44.2035 55.7967 43.9772C55.6381 43.683 55.5023 43.3661 55.3438 43.0266ZM56.2948 40.5142C56.159 40.899 56.0005 41.3064 55.8646 41.6912C56.159 42.2797 56.4307 42.8455 56.7025 43.434C57.0648 43.2076 57.4497 42.9587 57.812 42.7323C57.6762 42.4155 57.6082 42.0533 57.6082 41.6686C57.6082 41.4649 57.6309 41.2612 57.6762 41.0801C57.2006 40.899 56.7477 40.6953 56.2948 40.5142ZM43.9987 65.5019C44.2478 64.2797 44.4743 62.9669 44.6554 61.5636C44.429 61.8579 44.1799 62.1295 43.9535 62.4011C43.41 63.0348 42.8665 63.6459 42.323 64.2344C42.8892 64.6871 43.4553 65.1171 43.9987 65.5019ZM28.0342 48.7982C29.4608 50.79 30.978 52.7365 32.5858 54.6377C35.5975 53.6871 38.6772 52.5328 41.7796 51.22C37.6582 50.2467 33.3784 49.0698 29.1664 47.7344C28.8947 48.1644 28.5097 48.5492 28.0342 48.7982ZM25.9509 31.6418C25.9509 31.755 25.9509 31.8681 25.9735 31.9813L26.2 31.8455C26.1773 31.7776 26.1773 31.7323 26.1773 31.6644L25.9509 31.6418ZM37.5223 7.24263C37.4771 7.1521 37.4318 7.06156 37.3865 6.99366C36.3675 5.06979 35.3258 3.64387 34.3068 2.80642C33.7407 3.30436 32.8349 3.6665 31.8385 3.7344C31.1365 3.77967 30.5025 3.6665 30.0043 3.41753C29.0532 4.63975 28.2606 6.54099 27.6266 8.94016C28.8721 9.59654 30.1628 10.4114 31.4988 11.3393C31.7932 11.113 32.1555 10.9772 32.5405 10.9772C32.7896 10.9772 33.0387 11.0225 33.2651 11.1356C34.6691 9.68708 36.0957 8.37432 37.5223 7.24263ZM45.3574 49.613C45.3574 45.9237 45.1763 42.0307 44.814 38.0472C43.7949 37.8661 43.0024 36.9834 43.0024 35.9196C43.0024 35.897 43.0024 35.8743 43.0024 35.8517C38.4281 34.471 33.8539 33.2941 29.5061 32.3661C29.2117 32.9093 28.623 33.2941 27.9436 33.2941C27.4681 33.2941 27.0152 33.0904 26.6982 32.7961C26.4717 32.9319 26.2453 33.0451 26.0188 33.1809C26.2 36.6212 26.517 40.1747 26.9925 43.7509C28.3965 43.8414 29.5061 44.9957 29.5061 46.4216C29.5061 46.5348 29.5061 46.6253 29.4835 46.7385C34.1483 48.2323 38.8584 49.4998 43.3873 50.5183C44.044 50.2241 44.7007 49.9299 45.3574 49.613ZM45.3348 50.9484V50.79L45.0857 50.9031L45.3348 50.9484ZM34.8729 1.9237L34.9182 1.94634C36.0731 2.87432 37.228 4.41342 38.3149 6.49572C38.3376 6.51835 38.3602 6.56362 38.3602 6.58626C41.5305 4.25498 44.7007 2.85169 47.7125 2.60272C44.7687 1.83317 41.689 1.4484 38.5187 1.4484C37.2959 1.4484 36.0957 1.5163 34.8956 1.62947C34.8956 1.6521 34.8956 1.69737 34.8956 1.72C34.8956 1.7879 34.8956 1.8558 34.8729 1.9237ZM24.8639 30.3743C24.796 28.5184 24.796 26.685 24.8186 24.9422C23.9581 26.5492 23.1203 28.2241 22.373 29.9669C22.5542 29.9895 22.758 30.0348 22.9391 30.0574C23.5505 30.148 24.2072 30.2612 24.8639 30.3743ZM46.3764 52.2385C46.3538 53.7323 46.2859 55.1583 46.1953 56.5616C46.1726 57.0369 46.1274 57.5122 46.0821 57.9875C46.9426 56.7653 47.8031 55.4978 48.6183 54.1624C48.188 53.755 47.8936 53.1665 47.871 52.5328C47.3955 52.4422 46.8746 52.3291 46.3764 52.2385ZM46.3991 50.292C46.3991 50.5863 46.3991 50.8805 46.3991 51.1747C46.9652 51.2879 47.5313 51.4011 48.0748 51.5142C48.4371 50.6768 49.275 50.0883 50.2487 50.0883C50.4751 50.0883 50.7016 50.1109 50.9054 50.1788C51.4262 49.2056 51.9018 48.2323 52.4 47.2138C50.4299 48.3002 48.4371 49.3188 46.3991 50.292ZM45.8556 37.9793C46.1953 41.8044 46.3764 45.5616 46.3991 49.1151C48.6862 48.006 50.9507 46.8291 53.1472 45.5616C53.7133 44.3167 54.2342 43.0492 54.7324 41.7365C54.3474 40.9669 53.9398 40.1747 53.5322 39.4052C52.3094 38.9299 51.0413 38.4772 49.7279 38.0245C48.8221 37.7077 47.9163 37.4134 47.0105 37.0965C46.7161 37.5039 46.3312 37.8208 45.8556 37.9793ZM70.0629 32.1398C69.0665 30.9854 67.9116 29.899 66.6209 28.8352C64.6961 27.2509 62.4542 25.7797 59.9407 24.4669C59.5783 28.541 58.6952 32.9772 57.2459 37.6624C57.0421 38.2961 56.8383 38.9072 56.6345 39.541C57.1101 39.7447 57.5856 39.9258 58.0611 40.1295C58.5593 39.4278 59.3745 38.9751 60.2803 38.9751C60.9823 38.9751 61.639 39.2467 62.1146 39.6994C65.5792 37.0513 68.2513 34.4937 70.0629 32.1398ZM72.35 48.7529C72.9614 47.8249 73.4369 46.8517 73.7766 45.8332C73.4596 45.1994 73.369 44.2941 73.5728 43.3887C73.7087 42.7097 74.0031 42.1212 74.3654 41.7365C74.2295 38.7488 72.9614 35.7838 70.7649 32.9998C68.908 35.3764 66.2133 37.934 62.7713 40.5369C62.9298 40.8764 63.0203 41.2838 63.0203 41.6912C63.0203 41.9175 62.9977 42.1439 62.9298 42.3702C66.1453 43.9546 68.6815 45.4937 70.4252 46.8969C71.2177 47.5081 71.8744 48.1418 72.35 48.7529ZM36.5033 58.9381C39.3792 59.3002 42.1872 59.4587 44.9272 59.4361C45.0178 58.4854 45.1083 57.4895 45.1763 56.4937C45.2669 55.0451 45.3348 53.5513 45.3574 52.0122C44.746 51.8764 44.1346 51.7406 43.5232 51.6048C40.1039 53.0986 36.6845 54.4114 33.3557 55.4751C34.3974 56.72 35.439 57.8517 36.5033 58.9381ZM27.7172 18.1068C27.1963 18.1521 26.6755 18.1974 26.1773 18.2426C26.132 18.7632 26.0868 19.3064 26.0641 19.8723C26.0415 20.1665 26.0188 20.4607 26.0188 20.7776C26.5623 19.8496 27.1284 18.9669 27.7172 18.1068ZM38.3829 17.2015C39.3566 17.292 40.3303 17.4052 41.304 17.5636C40.3077 13.8743 39.1754 10.7056 37.9979 8.21588C36.6845 9.27967 35.3711 10.5019 34.0577 11.8599C34.2162 12.1315 34.3068 12.4258 34.3068 12.7426C34.3068 12.969 34.2615 13.1953 34.1709 13.399C35.5523 14.5307 36.9562 15.7982 38.3829 17.2015ZM29.8458 16.9299C32.0876 16.8393 34.3747 16.8846 36.7298 17.043C35.6428 16.0019 34.5785 15.0513 33.5142 14.1912C33.2425 14.3723 32.9028 14.4854 32.5631 14.4854C32.3141 14.4854 32.065 14.4402 31.8612 14.3496C31.1592 15.1644 30.5025 16.0245 29.8458 16.9299ZM26.2679 17.1788C26.9925 17.1109 27.7398 17.043 28.4871 16.9978C29.325 15.8208 30.1854 14.7118 31.0459 13.648C30.8874 13.3764 30.7969 13.0595 30.7969 12.7426C30.7969 12.5616 30.8195 12.3579 30.8874 12.1994C29.6873 11.3393 28.5097 10.5924 27.3775 9.98132C26.902 12.0863 26.517 14.5081 26.2679 17.1788ZM44.1799 60.4772C42.0513 60.4772 39.8774 60.3414 37.6809 60.1151C38.9716 61.3826 40.2397 62.5369 41.5078 63.5554C42.0739 62.9669 42.6174 62.3558 43.1609 61.6994C43.5006 61.3147 43.8402 60.9072 44.1799 60.4772ZM68.3192 54.2303C66.3944 55.5883 64.1299 56.7426 61.5937 57.6706C61.5031 57.6932 61.4352 57.7385 61.3446 57.7611C61.8655 61.0883 61.7975 64.0081 61.0503 66.2714C60.9823 66.5204 60.8917 66.7467 60.8012 66.9504C62.0693 65.9772 63.2468 64.9361 64.379 63.8044C67.4134 60.7714 69.927 57.1953 71.7386 53.2344C71.4442 53.3928 71.0819 53.5513 70.6969 53.6871C70.0176 53.936 69.225 54.1171 68.3192 54.2303ZM72.2141 50.6768C71.6027 51.4011 70.9234 52.1027 70.1761 52.7817C70.244 52.7591 70.312 52.7365 70.3572 52.7138C71.1498 52.4422 71.6706 52.1253 71.9877 51.7632C72.2594 51.469 72.3273 51.1068 72.2141 50.6768ZM73.369 49.1151C73.2558 49.3188 73.1199 49.4998 72.984 49.7035C72.984 49.7262 73.0067 49.7488 73.0067 49.7488C73.0293 49.8167 73.0746 49.8846 73.0973 49.9525C73.1878 49.6583 73.2784 49.3867 73.369 49.1151ZM56.6798 21.7735C57.1327 21.9772 57.5856 22.1583 58.0385 22.362C57.8347 22.1583 57.6762 21.9093 57.563 21.6377C57.2686 21.6603 56.9742 21.7056 56.6798 21.7735ZM42.4136 17.7221C42.8212 17.79 43.2288 17.8579 43.6138 17.9258C47.6219 18.65 51.3809 19.7138 54.8456 21.0266C55.7287 20.8681 56.5892 20.7097 57.4271 20.5965C57.5403 19.7138 58.1744 18.9669 59.0349 18.7406C58.8764 15.006 58.1517 11.8146 56.9289 9.3023C56.2948 8.01218 55.5249 6.90313 54.6191 6.02041C53.6907 6.56362 52.1509 6.56362 50.7016 5.95251C49.4108 5.4093 48.5277 4.50395 48.3239 3.62124C45.3348 3.71177 42.0739 5.1377 38.8357 7.53687C40.1265 10.2303 41.3493 13.6706 42.4136 17.7221ZM20.7879 34.9916C20.4935 34.6974 20.1085 34.5163 19.6556 34.5163C19.2254 34.5163 18.8178 34.6974 18.5234 34.9916C18.229 35.2858 18.0479 35.6706 18.0479 36.1233C18.0479 36.5533 18.229 36.9607 18.5234 37.255C18.8178 37.5492 19.2027 37.7303 19.6556 37.7303C20.0859 37.7303 20.4935 37.5492 20.7879 37.255C21.0823 36.9607 21.2634 36.576 21.2634 36.1233C21.2408 35.6706 21.0596 35.2858 20.7879 34.9916ZM17.0968 37.6398C16.825 37.1871 16.6665 36.6665 16.6665 36.1007C16.6665 35.2858 17.0062 34.5163 17.5497 33.9957C17.6855 33.8599 17.8667 33.7241 18.0252 33.6109C17.6629 32.8188 17.3459 32.0492 17.0288 31.257C16.893 30.9175 16.7571 30.578 16.6212 30.2612C11.4809 29.7406 7.2916 29.7858 4.80068 30.5101C4.86862 31.0986 4.84597 31.7323 4.7101 32.3887C4.52894 33.2035 4.21192 33.9052 3.80431 34.4258C4.16663 34.8105 4.61952 35.2179 5.14035 35.6253C7.01987 37.1418 9.82782 38.7941 13.4283 40.5142C14.5379 39.5863 15.7607 38.613 17.0968 37.6398ZM18.0252 38.6356C17.9346 38.5904 17.8667 38.5225 17.7761 38.4546C16.5986 39.3146 15.489 40.1747 14.47 41.0348C15.3078 41.4196 16.1683 41.8044 17.0741 42.1891C17.3459 40.9895 17.6629 39.8126 18.0252 38.6356ZM20.652 38.9299C20.335 39.043 19.9953 39.1109 19.6556 39.1109C19.4292 39.1109 19.2027 39.0883 18.9989 39.043C18.6366 40.2426 18.3196 41.4196 18.0479 42.5739C19.95 43.3661 21.988 44.1356 24.1619 44.9278C22.8938 42.936 21.739 40.9443 20.652 38.9299ZM22.5315 35.2632C22.6221 35.5348 22.6674 35.8291 22.6674 36.1233C22.6674 36.9381 22.3277 37.7076 21.7842 38.2282C21.7163 38.2961 21.6484 38.364 21.5804 38.4093C22.6447 40.4011 23.8223 42.3928 25.0677 44.3846C25.3168 44.1583 25.6112 43.9772 25.9509 43.864C25.498 40.4463 25.2036 37.0513 24.9998 33.7467C24.2525 34.1768 23.5052 34.6295 22.7806 35.0821C22.69 35.15 22.5995 35.1953 22.5315 35.2632ZM20.9237 33.4072C21.2408 33.5657 21.5352 33.7694 21.7842 33.9957C21.8748 34.0863 21.9654 34.1994 22.056 34.3126L22.2371 34.1994C23.1203 33.6336 24.0487 33.0904 24.9545 32.5698C24.9319 32.185 24.9092 31.8229 24.9092 31.4381C24.1846 31.3023 23.46 31.1891 22.758 31.076C22.4862 31.0307 22.1919 30.9854 21.9201 30.9402C21.5804 31.755 21.2408 32.5698 20.9237 33.4072ZM19.6556 33.1356C19.7462 33.1356 19.8142 33.1356 19.9047 33.1356C20.1991 32.3435 20.5161 31.5739 20.8558 30.7817C19.8142 30.6233 18.7951 30.4875 17.7988 30.3743C17.8667 30.5328 17.9346 30.6912 18.0026 30.8496C18.3196 31.6192 18.6593 32.3887 18.9989 33.1809C19.2027 33.1583 19.4292 33.1356 19.6556 33.1356ZM16.9836 57.648C16.7798 57.4443 16.4854 57.3085 16.1457 57.3085C15.8287 57.3085 15.5343 57.4443 15.3078 57.648C15.104 57.8517 14.9682 58.1459 14.9682 58.4854C14.9682 58.8023 15.104 59.0965 15.3078 59.3229C15.5116 59.5266 15.806 59.6624 16.1457 59.6624C16.4627 59.6624 16.7571 59.5266 16.9836 59.3229C17.1874 59.1192 17.3232 58.8249 17.3232 58.4854C17.3232 58.1686 17.1874 57.8743 16.9836 57.648ZM39.8774 74.5328C39.5377 74.329 39.0622 74.2159 38.5414 74.2159C37.9979 74.2159 37.5224 74.329 37.2053 74.5328C36.9789 74.6686 36.8657 74.8044 36.8657 74.9175C36.8657 75.0307 37.0015 75.1665 37.2053 75.3023C37.545 75.506 38.0205 75.6192 38.5414 75.6192C39.0848 75.6192 39.5604 75.506 39.8774 75.3023C40.1039 75.1665 40.2171 75.0307 40.2171 74.9175C40.2171 74.7817 40.1039 74.6459 39.8774 74.5328ZM41.4625 74.2159C41.4852 74.2838 41.5305 74.3517 41.5531 74.4196C46.0368 74.0574 50.2713 72.8805 54.1436 71.0472C53.1246 70.9793 52.015 70.7756 50.8375 70.3908C48.9353 69.757 46.8746 68.7159 44.6781 67.2673C43.9082 70.3002 42.9118 72.6542 41.6663 74.0122C41.5984 74.0801 41.5305 74.148 41.4625 74.2159ZM19.0216 7.60477C19.1575 7.19737 19.1348 6.83523 18.9537 6.63152C18.7725 6.40519 18.4102 6.33728 17.9799 6.38255C17.4365 6.45045 16.8477 6.72206 16.3042 7.17473C15.7607 7.62741 15.3984 8.17062 15.2399 8.69119C15.104 9.0986 15.1267 9.46074 15.3078 9.66444C15.489 9.89078 15.8513 9.95868 16.2816 9.91341C16.8024 9.84551 17.3912 9.59654 17.912 9.14387L17.9573 9.0986C18.4781 8.66856 18.8631 8.12535 19.0216 7.60477ZM6.99722 56.1768C6.99722 55.792 6.83871 55.3167 6.56697 54.864C6.29523 54.4114 5.93292 54.0718 5.59325 53.8908C5.3668 53.7776 5.18564 53.7323 5.07242 53.8002C4.98184 53.8681 4.93655 54.0492 4.93655 54.2982C4.93655 54.683 5.09506 55.1583 5.3668 55.6109C5.63854 56.0636 6.00085 56.4031 6.34052 56.5842C6.56697 56.6974 6.74813 56.7426 6.86135 56.6747C6.97458 56.6295 7.01987 56.4484 6.99722 56.1768ZM72.984 23.0863C72.6444 22.8146 72.3047 22.7015 72.033 22.792C71.5121 22.9505 71.331 23.6295 71.3763 24.3764C71.3989 24.7385 71.4668 25.1007 71.5801 25.4402C71.6933 25.8023 71.8518 26.1418 72.033 26.436C72.4406 27.0698 72.9614 27.4998 73.4822 27.3188C73.754 27.2282 73.9578 26.934 74.071 26.5266C74.2069 26.006 74.1842 25.3496 73.9578 24.6706C73.754 23.9916 73.3916 23.4258 72.984 23.0863ZM71.1045 21.683C71.1498 21.6603 71.1725 21.6377 71.2177 21.6151C69.4515 18.1068 67.1417 14.8928 64.379 12.1542C61.8881 9.66444 59.0349 7.51424 55.8872 5.83934C56.6572 6.69942 57.3139 7.71794 57.88 8.84963C59.1707 11.4751 59.918 14.8249 60.0765 18.7179C60.8238 18.899 61.4126 19.4422 61.6617 20.1439C64.4696 20.0081 66.9152 20.1891 68.8853 20.755C69.7458 21.0039 70.4705 21.3208 71.1045 21.683ZM45.5612 22.6336C45.1083 22.1809 44.4743 21.9093 43.7949 21.9093C43.093 21.9093 42.4816 22.1809 42.0287 22.6336C41.5758 23.0863 41.304 23.72 41.304 24.399C41.304 25.1007 41.5758 25.7118 42.0287 26.1644C42.4816 26.6171 43.1156 26.8887 43.7949 26.8887C44.4969 26.8887 45.1083 26.6171 45.5612 26.1644C46.0141 25.7118 46.2859 25.078 46.2859 24.399C46.2859 23.72 46.0141 23.0863 45.5612 22.6336ZM41.9381 20.9587C42.006 20.936 42.0513 20.8908 42.1192 20.8681C41.9381 20.0986 41.7569 19.3743 41.5758 18.65C40.8964 18.5369 40.2171 18.4463 39.5377 18.3784C40.3303 19.1932 41.1455 20.0533 41.9381 20.9587ZM39.9906 25.3949C39.9001 25.078 39.8548 24.7385 39.8548 24.399C39.8548 23.3126 40.285 22.3393 41.0096 21.6377C41.0323 21.6151 41.0549 21.5924 41.0776 21.5698C40.0133 20.3702 38.949 19.2385 37.9073 18.1974C34.8729 17.9258 31.9065 17.8579 29.0532 18.0163C27.9663 19.578 26.902 21.2303 25.9056 22.9731C25.8377 25.3949 25.8377 27.9525 25.9056 30.578C26.0641 30.6007 26.2226 30.6459 26.3585 30.6686C26.6529 30.1027 27.2416 29.7179 27.9436 29.7179C28.4418 29.7179 28.8947 29.9216 29.2117 30.2385C32.7669 28.4278 36.3901 26.7982 39.9906 25.3949ZM43.5911 28.3146C42.5948 28.2694 41.689 27.8393 41.0323 27.183C40.7832 26.934 40.5794 26.685 40.4209 26.3908C36.843 27.7714 33.2425 29.3784 29.7326 31.1891C29.7326 31.2344 29.7552 31.3023 29.7552 31.3476C34.1256 32.2756 38.7452 33.4751 43.3194 34.8558C43.5685 34.4258 43.9308 34.1089 44.4064 33.9278C44.2026 32.2077 43.9535 30.4649 43.6817 28.7447C43.6364 28.5863 43.6138 28.4505 43.5911 28.3146ZM45.9915 27.6356C45.5839 27.9072 45.131 28.1109 44.6102 28.2241L44.6554 28.5636C44.9272 30.3064 45.1763 32.0492 45.3801 33.7694C46.467 33.8825 47.3049 34.8105 47.3049 35.9196C47.3049 35.9875 47.3049 36.0554 47.3049 36.1007C48.2107 36.3949 49.1165 36.7118 50.0223 37.0286C50.9507 37.3455 51.8338 37.6624 52.717 38.0019C50.7695 34.5163 48.5051 31.0081 45.9915 27.6356ZM47.6672 23.8784C47.6898 24.0595 47.7125 24.2179 47.7125 24.399C47.7125 25.3496 47.3728 26.2323 46.8067 26.9114C49.6373 30.6912 52.1509 34.6521 54.2795 38.5677C54.755 38.7488 55.2305 38.9299 55.6834 39.1109C55.8872 38.5225 56.0684 37.934 56.2722 37.3229C57.7441 32.5698 58.6273 28.043 58.9669 23.9237C57.6309 23.2673 56.2496 22.6562 54.8003 22.0904C52.7396 22.4978 50.611 23.0184 48.3918 23.6747C48.1201 23.7653 47.8936 23.8105 47.6672 23.8784ZM43.7949 20.506C44.8819 20.506 45.8556 20.936 46.5576 21.6603C46.8973 21.9998 47.1917 22.4299 47.3955 22.8825C47.6219 22.8146 47.8484 22.7467 48.0522 22.6788C49.7052 22.2035 51.3356 21.7735 52.9208 21.434C49.977 20.3928 46.784 19.5554 43.4553 18.9669C43.2062 18.9216 42.9571 18.8764 42.7306 18.8311C42.8665 19.397 43.0024 19.9628 43.1382 20.5513C43.342 20.5286 43.5685 20.506 43.7949 20.506ZM30.8648 56.4484C30.4345 56.0183 29.8458 55.7467 29.1891 55.7467C28.5324 55.7467 27.9436 56.0183 27.5134 56.4484C27.0831 56.8784 26.8114 57.4669 26.8114 58.1233C26.8114 58.7797 27.0831 59.3682 27.5134 59.7982C27.9436 60.2282 28.5324 60.4998 29.1891 60.4998C29.8458 60.4998 30.4345 60.2282 30.8648 59.7982C31.295 59.3682 31.5668 58.7797 31.5668 58.1233C31.5668 57.4669 31.295 56.8784 30.8648 56.4484ZM60.7785 52.9175C60.5747 52.7138 60.2803 52.578 59.9407 52.578C59.6236 52.578 59.3293 52.7138 59.1028 52.9175C58.899 53.1212 58.7631 53.4155 58.7631 53.755C58.7631 54.0718 58.899 54.3661 59.1028 54.5924C59.3066 54.7961 59.601 54.9319 59.9407 54.9319C60.2577 54.9319 60.5521 54.7961 60.7785 54.5924C60.9823 54.3887 61.1182 54.0945 61.1182 53.755C61.1182 53.4155 61.005 53.1212 60.7785 52.9175ZM57.495 52.9628C57.6309 52.5554 57.8347 52.1932 58.1291 51.899C58.3102 51.7179 58.514 51.5595 58.7405 51.4463C58.2649 49.9751 57.7215 48.4813 57.0874 46.9422C56.8157 46.2858 56.5213 45.6068 56.2269 44.9505C55.4796 45.4031 54.7324 45.8558 53.9624 46.3085C53.2831 47.8023 52.5811 49.2509 51.8338 50.6542C52.2867 51.0616 52.5811 51.65 52.6264 52.3064C54.3248 52.578 55.9552 52.8044 57.495 52.9628ZM60.0312 56.3126C60.0086 56.3126 59.9859 56.3126 59.9633 56.3126C59.2613 56.3126 58.6046 56.0183 58.1291 55.5657C57.7215 55.1583 57.4497 54.6151 57.3818 54.0266C55.8193 53.8455 54.1662 53.6192 52.4452 53.3476C52.0829 54.2076 51.2451 54.8188 50.2487 54.8188C49.9996 54.8188 49.7505 54.7735 49.5241 54.7056C48.5051 56.3579 47.4408 57.9422 46.3538 59.4134C51.4262 59.255 56.1363 58.4402 60.1897 57.0595C60.1218 56.8105 60.0765 56.5616 60.0312 56.3126ZM62.4542 54.4114C62.341 54.8414 62.0919 55.2488 61.7975 55.5657C61.5937 55.7694 61.3446 55.9505 61.0729 56.0863C61.1182 56.29 61.1635 56.5163 61.2088 56.72L61.2767 56.6974C63.043 56.041 64.6508 55.2941 66.1227 54.434C64.9678 54.4793 63.745 54.4566 62.4542 54.4114ZM59.9633 51.1521C60.6653 51.1521 61.322 51.4463 61.7975 51.899C62.1825 52.2838 62.4542 52.7817 62.5222 53.3476C64.6055 53.4381 66.4171 53.3928 67.9343 53.2118C69.4515 52.1253 70.7196 50.9258 71.7386 49.613C71.3083 49.0019 70.6516 48.3455 69.7911 47.6665C68.0928 46.3085 65.6471 44.8146 62.4995 43.2529C62.0013 43.9093 61.2088 44.362 60.3256 44.362C59.5783 44.362 58.899 44.0677 58.4235 43.5698C58.0159 43.8414 57.5856 44.113 57.178 44.3846C57.495 45.1089 57.812 45.8332 58.1064 46.5574C58.7405 48.1192 59.3066 49.6583 59.8048 51.1747C59.8048 51.1521 59.8727 51.1521 59.9633 51.1521ZM8.55971 46.4443C8.35591 46.2406 8.06153 46.1048 7.72185 46.1048C7.38218 46.1048 7.11045 46.2406 6.884 46.4443C6.6802 46.648 6.54433 46.9422 6.54433 47.2817C6.54433 47.6212 6.6802 47.8928 6.884 48.1192C7.0878 48.3229 7.38218 48.4587 7.72185 48.4587C8.06153 48.4587 8.33326 48.3229 8.55971 48.1192C8.76351 47.9155 8.89938 47.6212 8.89938 47.2817C8.89938 46.9422 8.76351 46.6706 8.55971 46.4443ZM59.9633 68.1953C59.9633 68.1727 59.9407 68.1727 59.918 68.15C59.7369 67.9463 59.3519 67.8784 58.9216 67.9237C58.3782 67.9916 57.7668 68.2179 57.2233 68.6254C57.0874 68.7159 56.9515 68.8291 56.8383 68.9422C56.476 69.2817 56.2269 69.6665 56.1363 70.006C56.0684 70.255 56.0684 70.4587 56.1816 70.6171C56.1816 70.6398 56.2043 70.6398 56.2269 70.6624C56.4081 70.8661 56.793 70.934 57.2233 70.8887C57.7668 70.8208 58.3782 70.5945 58.9216 70.1871C59.0575 70.0965 59.1934 69.9834 59.3066 69.8702C59.6689 69.5307 59.918 69.1459 60.0086 68.8064C60.0765 68.5574 60.0765 68.3311 59.9633 68.1953ZM20.4709 6.76733C21.6257 6.76733 22.8938 7.0163 24.2299 7.44634C25.0224 7.69531 25.8377 8.03481 26.6982 8.44222C27.3775 5.97514 28.2154 4.02864 29.2117 2.73852C29.1891 2.71589 29.1891 2.69325 29.1664 2.64798C26.0415 3.4628 23.075 4.70765 20.3576 6.26938C20.4029 6.42782 20.4482 6.60889 20.4709 6.76733ZM5.61589 45.8105C3.98547 43.9093 2.76265 41.9175 2.01538 39.8805C2.24182 44.3167 3.26084 48.5266 4.9139 52.4196C4.93655 52.4196 4.98184 52.4196 5.00448 52.3969C5.00448 52.3064 5.02713 52.2159 5.02713 52.1253C5.14035 51.1974 5.45738 50.2241 5.97821 49.183C5.95556 49.1603 5.93292 49.1377 5.91027 49.1151C5.43473 48.6398 5.163 48.006 5.163 47.2817C5.14035 46.7385 5.32151 46.2179 5.61589 45.8105ZM8.87674 44.9731C9.9184 43.7735 11.1412 42.5286 12.5678 41.2838C9.05789 39.5863 6.31788 37.934 4.46101 36.4402C3.89489 35.9875 3.39671 35.5348 3.01175 35.1048C2.74001 35.2406 2.46827 35.3311 2.19653 35.3085C2.24182 38.6583 3.73638 41.9854 6.38581 45.0636C6.77077 44.8146 7.24632 44.6788 7.7445 44.6788C8.12946 44.7015 8.51442 44.792 8.87674 44.9731ZM9.96369 48.5718C11.5941 49.9072 13.451 51.1521 15.489 52.3064C15.6702 49.4546 16.1004 46.4216 16.825 43.2076C15.6928 42.7323 14.6059 42.257 13.5868 41.7817C12.0696 43.0945 10.7789 44.3846 9.69195 45.6295C10.0769 46.0821 10.3034 46.648 10.3034 47.2817C10.3034 47.757 10.1901 48.1871 9.96369 48.5718ZM15.3984 56.0183C15.3984 55.8599 15.3984 55.7241 15.3984 55.5657C15.3984 54.8867 15.3984 54.185 15.4211 53.4607C13.134 52.2159 11.0733 50.8352 9.2617 49.364C8.83145 49.6809 8.31062 49.862 7.72185 49.862C7.42747 49.862 7.13309 49.8167 6.884 49.7262C6.45375 50.6315 6.18201 51.469 6.09143 52.2611C6.06879 52.3743 6.06879 52.4875 6.06879 52.578C6.13672 52.6007 6.20466 52.6459 6.27259 52.6686C6.81606 52.9628 7.35954 53.4607 7.76714 54.1397C8.17475 54.7961 8.4012 55.5204 8.42384 56.1315C8.42384 56.2447 8.42384 56.3579 8.4012 56.471C8.89938 56.7426 9.51079 56.969 10.1901 57.1727C11.2091 57.4669 12.3867 57.648 13.6774 57.7385C13.7906 57.3085 14.0171 56.9463 14.3341 56.6295C14.6059 56.3579 14.9908 56.1315 15.3984 56.0183ZM18.5913 57.648C20.1085 57.5122 21.7163 57.2858 23.4147 56.969C20.9464 56.1089 18.614 55.113 16.4627 54.0039C16.4401 54.5245 16.4401 55.0451 16.4627 55.543C16.4627 55.6788 16.4627 55.792 16.4627 55.9278C17.0515 55.9957 17.5723 56.2673 17.9799 56.6747C18.2517 56.9463 18.4555 57.2858 18.5913 57.648ZM27.8078 54.5924C27.4228 52.827 27.0605 50.9937 26.7434 49.0698C25.3168 49.0245 24.1619 47.8476 24.1619 46.399C24.1619 46.2858 24.1619 46.15 24.1846 46.0369C21.9201 45.2221 19.7915 44.4072 17.8214 43.6151C17.0968 46.8743 16.6665 49.9751 16.508 52.8496C19.2027 54.2756 22.2145 55.543 25.4753 56.5616C25.5659 56.5389 25.6791 56.5163 25.7697 56.4937C25.9509 56.1089 26.2 55.7694 26.4944 55.4525C26.8793 55.0904 27.3096 54.7961 27.8078 54.5924ZM31.3403 55.0225L31.4988 54.9772C30.2987 53.5513 29.1664 52.1027 28.0568 50.6089C28.3059 51.899 28.555 53.1665 28.8268 54.3661C28.94 54.3661 29.0759 54.3435 29.1891 54.3435C29.9816 54.3435 30.7289 54.5924 31.3403 55.0225ZM32.9481 58.3949L33.1066 58.4175C33.6274 58.5081 34.1483 58.5986 34.6691 58.6891C34.7144 58.6891 34.7597 58.7118 34.805 58.7118C33.9445 57.8064 33.084 56.8558 32.2235 55.8373H32.1782C32.6537 56.471 32.9481 57.2632 32.9481 58.1233C32.9708 58.2138 32.9708 58.3044 32.9481 58.3949ZM30.7063 61.5863C31.68 64.6871 32.7217 67.3126 33.8086 69.3723C33.8765 69.4854 33.9218 69.5986 33.9898 69.7118C36.2542 68.4216 38.5414 66.6109 40.7832 64.3476C39.2207 63.0574 37.6129 61.5863 36.0051 59.934C35.507 59.8661 35.0088 59.7982 34.5106 59.7303C33.9898 59.6398 33.4463 59.5492 32.9255 59.4587L32.7443 59.4361C32.5631 59.9566 32.2461 60.4319 31.8612 60.8167C31.5215 61.1336 31.1365 61.4052 30.7063 61.5863ZM16.9383 60.9525C17.3006 62.9216 17.8441 64.6871 18.5687 66.1809C19.3386 67.7653 20.3123 69.0554 21.4672 70.006C22.1466 69.6891 23.1882 69.7118 24.1619 70.1192C25.113 70.5266 25.7471 71.183 25.8829 71.8167C26.2453 71.862 26.6076 71.862 26.9699 71.862C28.9173 71.8393 30.978 71.2509 33.0613 70.1871C32.9934 70.0739 32.9481 69.9607 32.8802 69.8476C31.7706 67.7426 30.6836 65.0492 29.7099 61.8805C29.5287 61.9031 29.3702 61.9258 29.1891 61.9258C28.1474 61.9258 27.1963 61.4957 26.517 60.8167C25.8377 60.1377 25.4074 59.1871 25.4074 58.1459C25.4074 57.9875 25.4074 57.8064 25.4301 57.648C23.075 58.1686 20.8105 58.5081 18.7272 58.7118C18.6819 59.3455 18.4102 59.9114 17.9799 60.3188C17.6855 60.5904 17.3232 60.8167 16.9383 60.9525ZM7.76714 57.7611C9.19376 59.9566 10.8242 61.9937 12.6811 63.827C14.5832 65.7282 16.7118 67.4258 18.9989 68.8743C18.5008 68.1953 18.0479 67.4484 17.6403 66.6336C16.8477 65.0266 16.2816 63.148 15.8966 61.043C15.2852 60.9751 14.7417 60.7035 14.3115 60.2961C13.9039 59.9114 13.6548 59.3681 13.5642 58.8023C12.2055 58.7118 10.9601 58.5081 9.87311 58.2138C9.17112 58.0101 8.55971 57.7838 8.01624 57.4895C7.9483 57.5801 7.85772 57.6706 7.76714 57.7611ZM35.7561 73.9443C35.0314 73.2426 34.2841 72.292 33.5822 71.0924C31.5668 72.1336 29.5514 72.7447 27.6266 72.8805C30.1402 73.6727 32.7896 74.1932 35.507 74.4196C35.5749 74.2385 35.6655 74.1027 35.7561 73.9443ZM40.7605 73.4237C40.8058 73.3784 40.8511 73.3332 40.8738 73.2879C42.0513 71.9751 43.025 69.6439 43.7497 66.6109C43.0477 66.113 42.323 65.5698 41.5758 64.9813C39.266 67.3352 36.8657 69.2365 34.488 70.5945C35.1673 71.7262 35.8693 72.6089 36.5486 73.2653C37.0695 72.971 37.7714 72.8126 38.5187 72.8126C39.3113 72.8126 40.0359 73.0163 40.5567 73.3105C40.6473 73.3558 40.6926 73.3784 40.7605 73.4237ZM59.8274 66.5883C59.918 66.3846 59.986 66.1809 60.0539 65.9546C60.7332 63.8723 60.8012 61.2015 60.3483 58.1233C56.091 59.5266 51.1545 60.364 45.8556 60.4772C45.6292 62.5369 45.3121 64.4381 44.9272 66.1583C47.1464 67.6747 49.2523 68.7385 51.1545 69.3723C52.4452 69.8023 53.6454 70.006 54.7097 70.006C54.7324 69.8928 54.755 69.757 54.7776 69.6439C54.9362 69.078 55.3211 68.4669 55.8646 67.969C56.0231 67.8105 56.1816 67.6747 56.3854 67.5389C57.1327 66.9731 57.9932 66.6562 58.7631 66.5657C59.1481 66.4978 59.4878 66.5204 59.8274 66.5883ZM73.2331 28.7673C72.8255 29.8085 72.2141 30.9402 71.3989 32.0945C73.2331 34.3805 74.5012 36.7797 75.0674 39.2467C75.09 38.8393 75.09 38.4093 75.09 37.9793C75.09 34.7653 74.6824 31.6418 73.8898 28.6542C73.6634 28.7447 73.4369 28.7673 73.2331 28.7673ZM70.3572 22.4751C69.8591 22.2035 69.2703 21.9772 68.591 21.7735C66.7341 21.2529 64.4017 21.0718 61.7296 21.2077C61.5937 22.0904 60.9144 22.792 60.0312 22.9731C60.0312 23.0863 60.0086 23.2221 60.0086 23.3352C62.7486 24.7385 65.1716 26.3229 67.2776 28.0204C68.5457 29.0616 69.6779 30.148 70.6743 31.2797C71.3536 30.3064 71.8518 29.3784 72.1915 28.5184C71.6706 28.2467 71.1951 27.7714 70.8328 27.183C70.5837 26.7756 70.3799 26.3455 70.2214 25.8702C70.0629 25.3949 69.9723 24.9196 69.9496 24.4443C69.927 23.72 70.0402 23.0184 70.3572 22.4751ZM38.5187 0.38461C42.1872 0.38461 45.7424 0.905186 49.0938 1.90107C50.0223 1.35786 51.5847 1.33523 53.034 1.94634C54.3927 2.51218 55.2985 3.48543 55.4343 4.39078C59.0349 6.20148 62.2957 8.57802 65.1037 11.3846C68.0022 14.2817 70.4252 17.6315 72.2594 21.3435C72.8029 21.3661 73.369 21.5924 73.8672 21.9998C74.4786 22.4978 74.9994 23.29 75.3164 24.2179C75.6108 25.1686 75.6561 26.0965 75.4523 26.8661C75.3391 27.3414 75.1126 27.7488 74.8183 28.0657C75.6788 31.2344 76.1317 34.5389 76.1317 37.9793C76.1317 39.0883 76.0864 40.1974 75.9958 41.2838C76.7884 41.7365 77.1733 43.1171 76.8789 44.4978C76.6072 45.7653 75.8826 46.648 75.1126 46.7159C73.4822 53.5739 69.9496 59.7077 65.1263 64.5513C63.9488 65.7282 62.6807 66.8373 61.3673 67.8332C61.5031 68.2406 61.5031 68.6933 61.3673 69.1459C61.2088 69.7118 60.8238 70.3229 60.2803 70.8435C60.1218 71.0019 59.9633 71.1377 59.7595 71.2735C59.0122 71.8393 58.1517 72.1562 57.3818 72.2467C56.5213 72.3373 55.7514 72.1562 55.2305 71.6356C51.0413 73.7179 46.3991 75.0533 41.5078 75.4381C41.3493 75.8455 41.0096 76.2076 40.5567 76.4566C40.0133 76.7735 39.2886 76.9546 38.5187 76.9546C37.7262 76.9546 37.0015 76.7509 36.4807 76.4566C36.0278 76.185 35.6881 75.8455 35.5296 75.4381C31.8838 75.1439 28.3739 74.3517 25.113 73.1068C24.4337 73.4011 23.4373 73.3558 22.4862 72.971C21.4672 72.541 20.8105 71.7941 20.7426 71.1151C17.4817 69.3723 14.5153 67.1542 11.9111 64.5513C9.96369 62.6048 8.22004 60.4319 6.72548 58.078C6.38581 58.078 6.0235 57.9649 5.68383 57.7838C5.14035 57.4895 4.59688 56.9916 4.18927 56.3126C3.78167 55.6562 3.55522 54.9319 3.53257 54.3208C3.50993 53.755 3.66844 53.257 3.98547 52.8949C2.01538 48.3455 0.905783 43.2982 0.905783 38.0019C0.905783 36.9155 0.951073 35.8291 1.04165 34.7653C0.31702 33.9731 -6.82473e-06 32.434 0.31702 30.8723C0.611401 29.4463 1.38132 28.3826 2.21918 28.043C3.96283 21.6603 7.35954 15.9566 11.9111 11.4072C12.4999 10.8188 13.134 10.2303 13.768 9.66444C13.6774 9.2344 13.7227 8.75909 13.8586 8.28379C14.085 7.53687 14.6059 6.74469 15.3758 6.11095C16.1231 5.4772 16.9836 5.09243 17.7761 5.00189C18.5008 4.91136 19.1801 5.04716 19.7009 5.45457C22.6221 3.75704 25.815 2.44428 29.1664 1.5842C29.574 0.792017 30.7289 0.158272 32.0876 0.0677374C33.016 0.0224699 33.8313 0.248807 34.3521 0.633581C35.7334 0.475145 37.1147 0.38461 38.5187 0.38461ZM12.1829 20.8681C12.1602 20.755 12.1602 20.6192 12.1602 20.506C12.1602 19.6007 12.7263 18.8085 13.5189 18.4916C13.2472 15.8208 13.383 13.4443 14.0171 11.543C14.1077 11.2488 14.2209 10.9772 14.3341 10.7056C14.3115 10.683 14.2888 10.6603 14.2662 10.6377C13.7227 11.113 13.1792 11.6336 12.6584 12.1315C8.31062 16.4998 5.04977 21.9546 3.32877 28.043C5.23093 25.1459 8.28797 22.7241 12.1829 20.8681ZM14.2209 22.6788C13.5642 22.6562 12.9754 22.3167 12.5905 21.8414C8.85409 23.6295 5.93292 25.9607 4.14398 28.7221C4.3025 28.9484 4.43836 29.1974 4.55159 29.4916C7.11045 28.7673 11.1865 28.6994 16.191 29.1747C15.3758 26.9114 14.6964 24.7385 14.2209 22.6788ZM16.4854 20.2797C16.4854 20.3476 16.508 20.4381 16.508 20.506C16.508 21.3661 16.0098 22.113 15.2626 22.4751C15.7607 24.6253 16.4627 26.9114 17.3685 29.2879C18.614 29.4237 19.9274 29.6048 21.2861 29.7858C22.373 27.2961 23.5732 24.9196 24.8639 22.6788C24.9092 21.7056 24.9545 20.7323 24.9998 19.8044C25.0224 19.3291 25.0677 18.8537 25.113 18.3784C22.0107 18.7632 19.1122 19.397 16.4854 20.2797ZM14.5606 18.3558C15.2173 18.4237 15.7834 18.7858 16.1457 19.3064C18.9084 18.3784 21.9654 17.7221 25.2262 17.3146C25.498 14.4175 25.9056 11.7694 26.4491 9.50601C25.5659 9.07597 24.7281 8.73646 23.9355 8.46486C22.6674 8.05745 21.4899 7.83111 20.4482 7.83111C20.4256 7.89901 20.4029 7.96691 20.4029 8.03481C20.1765 8.78173 19.6556 9.55128 18.931 10.1624L18.8857 10.2077C18.1384 10.8414 17.2779 11.2262 16.4854 11.3167C16.0551 11.362 15.6702 11.3393 15.3078 11.2488C15.2173 11.4525 15.1493 11.6562 15.0814 11.8826C14.4247 13.648 14.2888 15.8435 14.5606 18.3558Z" fill="#51545A"></path><mask id="mask0_45_90" style="mask-type:luminance" maskUnits="userSpaceOnUse" x="0" y="0" width="77" height="77"><path d="M55.2079 40.4011C55.2532 40.3105 55.2758 40.22 55.3211 40.1068L55.0041 39.971C55.072 40.1295 55.14 40.2653 55.2079 40.4011ZM55.3438 43.0266C55.1173 43.5698 54.9135 44.113 54.6871 44.6562C55.072 44.4299 55.4343 44.2035 55.7967 43.9772C55.6381 43.683 55.5023 43.3661 55.3438 43.0266ZM56.2948 40.5142C56.159 40.899 56.0005 41.3064 55.8646 41.6912C56.159 42.2797 56.4307 42.8455 56.7025 43.434C57.0648 43.2076 57.4497 42.9587 57.812 42.7323C57.6762 42.4155 57.6082 42.0533 57.6082 41.6686C57.6082 41.4649 57.6309 41.2612 57.6762 41.0801C57.2006 40.899 56.7477 40.6953 56.2948 40.5142ZM43.9987 65.5019C44.2478 64.2797 44.4743 62.9669 44.6554 61.5636C44.429 61.8579 44.1799 62.1295 43.9535 62.4011C43.41 63.0348 42.8665 63.6459 42.323 64.2344C42.8892 64.6871 43.4553 65.1171 43.9987 65.5019ZM28.0342 48.7982C29.4608 50.79 30.978 52.7365 32.5858 54.6377C35.5975 53.6871 38.6772 52.5328 41.7796 51.22C37.6582 50.2467 33.3784 49.0698 29.1664 47.7344C28.8947 48.1644 28.5097 48.5492 28.0342 48.7982ZM25.9509 31.6418C25.9509 31.755 25.9509 31.8681 25.9735 31.9813L26.2 31.8455C26.1773 31.7776 26.1773 31.7323 26.1773 31.6644L25.9509 31.6418ZM37.5223 7.24263C37.4771 7.1521 37.4318 7.06156 37.3865 6.99366C36.3675 5.06979 35.3258 3.64387 34.3068 2.80642C33.7407 3.30436 32.8349 3.6665 31.8385 3.7344C31.1365 3.77967 30.5025 3.6665 30.0043 3.41753C29.0532 4.63975 28.2606 6.54099 27.6266 8.94016C28.8721 9.59654 30.1628 10.4114 31.4988 11.3393C31.7932 11.113 32.1555 10.9772 32.5405 10.9772C32.7896 10.9772 33.0387 11.0225 33.2651 11.1356C34.6691 9.68708 36.0957 8.37432 37.5223 7.24263ZM45.3574 49.613C45.3574 45.9237 45.1763 42.0307 44.814 38.0472C43.7949 37.8661 43.0024 36.9834 43.0024 35.9196C43.0024 35.897 43.0024 35.8743 43.0024 35.8517C38.4281 34.471 33.8539 33.2941 29.5061 32.3661C29.2117 32.9093 28.623 33.2941 27.9436 33.2941C27.4681 33.2941 27.0152 33.0904 26.6982 32.7961C26.4717 32.9319 26.2453 33.0451 26.0188 33.1809C26.2 36.6212 26.517 40.1747 26.9925 43.7509C28.3965 43.8414 29.5061 44.9957 29.5061 46.4216C29.5061 46.5348 29.5061 46.6253 29.4835 46.7385C34.1483 48.2323 38.8584 49.4998 43.3873 50.5183C44.044 50.2241 44.7007 49.9299 45.3574 49.613ZM45.3348 50.9484V50.79L45.0857 50.9031L45.3348 50.9484ZM34.8729 1.9237L34.9182 1.94634C36.0731 2.87432 37.228 4.41342 38.3149 6.49572C38.3376 6.51835 38.3602 6.56362 38.3602 6.58626C41.5305 4.25498 44.7007 2.85169 47.7125 2.60272C44.7687 1.83317 41.689 1.4484 38.5187 1.4484C37.2959 1.4484 36.0957 1.5163 34.8956 1.62947C34.8956 1.6521 34.8956 1.69737 34.8956 1.72C34.8956 1.7879 34.8956 1.8558 34.8729 1.9237ZM24.8639 30.3743C24.796 28.5184 24.796 26.685 24.8186 24.9422C23.9581 26.5492 23.1203 28.2241 22.373 29.9669C22.5542 29.9895 22.758 30.0348 22.9391 30.0574C23.5505 30.148 24.2072 30.2612 24.8639 30.3743ZM46.3764 52.2385C46.3538 53.7323 46.2859 55.1583 46.1953 56.5616C46.1726 57.0369 46.1274 57.5122 46.0821 57.9875C46.9426 56.7653 47.8031 55.4978 48.6183 54.1624C48.188 53.755 47.8936 53.1665 47.871 52.5328C47.3955 52.4422 46.8746 52.3291 46.3764 52.2385ZM46.3991 50.292C46.3991 50.5863 46.3991 50.8805 46.3991 51.1747C46.9652 51.2879 47.5313 51.4011 48.0748 51.5142C48.4371 50.6768 49.275 50.0883 50.2487 50.0883C50.4751 50.0883 50.7016 50.1109 50.9054 50.1788C51.4262 49.2056 51.9018 48.2323 52.4 47.2138C50.4299 48.3002 48.4371 49.3188 46.3991 50.292ZM45.8556 37.9793C46.1953 41.8044 46.3764 45.5616 46.3991 49.1151C48.6862 48.006 50.9507 46.8291 53.1472 45.5616C53.7133 44.3167 54.2342 43.0492 54.7324 41.7365C54.3474 40.9669 53.9398 40.1747 53.5322 39.4052C52.3094 38.9299 51.0413 38.4772 49.7279 38.0245C48.8221 37.7077 47.9163 37.4134 47.0105 37.0965C46.7161 37.5039 46.3312 37.8208 45.8556 37.9793ZM70.0629 32.1398C69.0665 30.9854 67.9116 29.899 66.6209 28.8352C64.6961 27.2509 62.4542 25.7797 59.9407 24.4669C59.5783 28.541 58.6952 32.9772 57.2459 37.6624C57.0421 38.2961 56.8383 38.9072 56.6345 39.541C57.1101 39.7447 57.5856 39.9258 58.0611 40.1295C58.5593 39.4278 59.3745 38.9751 60.2803 38.9751C60.9823 38.9751 61.639 39.2467 62.1146 39.6994C65.5792 37.0513 68.2513 34.4937 70.0629 32.1398ZM72.35 48.7529C72.9614 47.8249 73.4369 46.8517 73.7766 45.8332C73.4596 45.1994 73.369 44.2941 73.5728 43.3887C73.7087 42.7097 74.0031 42.1212 74.3654 41.7365C74.2295 38.7488 72.9614 35.7838 70.7649 32.9998C68.908 35.3764 66.2133 37.934 62.7713 40.5369C62.9298 40.8764 63.0203 41.2838 63.0203 41.6912C63.0203 41.9175 62.9977 42.1439 62.9298 42.3702C66.1453 43.9546 68.6815 45.4937 70.4252 46.8969C71.2177 47.5081 71.8744 48.1418 72.35 48.7529ZM36.5033 58.9381C39.3792 59.3002 42.1872 59.4587 44.9272 59.4361C45.0178 58.4854 45.1083 57.4895 45.1763 56.4937C45.2669 55.0451 45.3348 53.5513 45.3574 52.0122C44.746 51.8764 44.1346 51.7406 43.5232 51.6048C40.1039 53.0986 36.6845 54.4114 33.3557 55.4751C34.3974 56.72 35.439 57.8517 36.5033 58.9381ZM27.7172 18.1068C27.1963 18.1521 26.6755 18.1974 26.1773 18.2426C26.132 18.7632 26.0868 19.3064 26.0641 19.8723C26.0415 20.1665 26.0188 20.4607 26.0188 20.7776C26.5623 19.8496 27.1284 18.9669 27.7172 18.1068ZM38.3829 17.2015C39.3566 17.292 40.3303 17.4052 41.304 17.5636C40.3077 13.8743 39.1754 10.7056 37.9979 8.21588C36.6845 9.27967 35.3711 10.5019 34.0577 11.8599C34.2162 12.1315 34.3068 12.4258 34.3068 12.7426C34.3068 12.969 34.2615 13.1953 34.1709 13.399C35.5523 14.5307 36.9562 15.7982 38.3829 17.2015ZM29.8458 16.9299C32.0876 16.8393 34.3747 16.8846 36.7298 17.043C35.6428 16.0019 34.5785 15.0513 33.5142 14.1912C33.2425 14.3723 32.9028 14.4854 32.5631 14.4854C32.3141 14.4854 32.065 14.4402 31.8612 14.3496C31.1592 15.1644 30.5025 16.0245 29.8458 16.9299ZM26.2679 17.1788C26.9925 17.1109 27.7398 17.043 28.4871 16.9978C29.325 15.8208 30.1854 14.7118 31.0459 13.648C30.8874 13.3764 30.7969 13.0595 30.7969 12.7426C30.7969 12.5616 30.8195 12.3579 30.8874 12.1994C29.6873 11.3393 28.5097 10.5924 27.3775 9.98132C26.902 12.0863 26.517 14.5081 26.2679 17.1788ZM44.1799 60.4772C42.0513 60.4772 39.8774 60.3414 37.6809 60.1151C38.9716 61.3826 40.2397 62.5369 41.5078 63.5554C42.0739 62.9669 42.6174 62.3558 43.1609 61.6994C43.5006 61.3147 43.8402 60.9072 44.1799 60.4772ZM68.3192 54.2303C66.3944 55.5883 64.1299 56.7426 61.5937 57.6706C61.5031 57.6932 61.4352 57.7385 61.3446 57.7611C61.8655 61.0883 61.7975 64.0081 61.0503 66.2714C60.9823 66.5204 60.8917 66.7467 60.8012 66.9504C62.0693 65.9772 63.2468 64.9361 64.379 63.8044C67.4134 60.7714 69.927 57.1953 71.7386 53.2344C71.4442 53.3928 71.0819 53.5513 70.6969 53.6871C70.0176 53.936 69.225 54.1171 68.3192 54.2303ZM72.2141 50.6768C71.6027 51.4011 70.9234 52.1027 70.1761 52.7817C70.244 52.7591 70.312 52.7365 70.3572 52.7138C71.1498 52.4422 71.6706 52.1253 71.9877 51.7632C72.2594 51.469 72.3273 51.1068 72.2141 50.6768ZM73.369 49.1151C73.2558 49.3188 73.1199 49.4998 72.984 49.7035C72.984 49.7262 73.0067 49.7488 73.0067 49.7488C73.0293 49.8167 73.0746 49.8846 73.0973 49.9525C73.1878 49.6583 73.2784 49.3867 73.369 49.1151ZM56.6798 21.7735C57.1327 21.9772 57.5856 22.1583 58.0385 22.362C57.8347 22.1583 57.6762 21.9093 57.563 21.6377C57.2686 21.6603 56.9742 21.7056 56.6798 21.7735ZM42.4136 17.7221C42.8212 17.79 43.2288 17.8579 43.6138 17.9258C47.6219 18.65 51.3809 19.7138 54.8456 21.0266C55.7287 20.8681 56.5892 20.7097 57.4271 20.5965C57.5403 19.7138 58.1744 18.9669 59.0349 18.7406C58.8764 15.006 58.1517 11.8146 56.9289 9.3023C56.2948 8.01218 55.5249 6.90313 54.6191 6.02041C53.6907 6.56362 52.1509 6.56362 50.7016 5.95251C49.4108 5.4093 48.5277 4.50395 48.3239 3.62124C45.3348 3.71177 42.0739 5.1377 38.8357 7.53687C40.1265 10.2303 41.3493 13.6706 42.4136 17.7221ZM20.7879 34.9916C20.4935 34.6974 20.1085 34.5163 19.6556 34.5163C19.2254 34.5163 18.8178 34.6974 18.5234 34.9916C18.229 35.2858 18.0479 35.6706 18.0479 36.1233C18.0479 36.5533 18.229 36.9607 18.5234 37.255C18.8178 37.5492 19.2027 37.7303 19.6556 37.7303C20.0859 37.7303 20.4935 37.5492 20.7879 37.255C21.0823 36.9607 21.2634 36.576 21.2634 36.1233C21.2408 35.6706 21.0596 35.2858 20.7879 34.9916ZM17.0968 37.6398C16.825 37.1871 16.6665 36.6665 16.6665 36.1007C16.6665 35.2858 17.0062 34.5163 17.5497 33.9957C17.6855 33.8599 17.8667 33.7241 18.0252 33.6109C17.6629 32.8188 17.3459 32.0492 17.0288 31.257C16.893 30.9175 16.7571 30.578 16.6212 30.2612C11.4809 29.7406 7.2916 29.7858 4.80068 30.5101C4.86862 31.0986 4.84597 31.7323 4.7101 32.3887C4.52894 33.2035 4.21192 33.9052 3.80431 34.4258C4.16663 34.8105 4.61952 35.2179 5.14035 35.6253C7.01987 37.1418 9.82782 38.7941 13.4283 40.5142C14.5379 39.5863 15.7607 38.613 17.0968 37.6398ZM18.0252 38.6356C17.9346 38.5904 17.8667 38.5225 17.7761 38.4546C16.5986 39.3146 15.489 40.1747 14.47 41.0348C15.3078 41.4196 16.1683 41.8044 17.0741 42.1891C17.3459 40.9895 17.6629 39.8126 18.0252 38.6356ZM20.652 38.9299C20.335 39.043 19.9953 39.1109 19.6556 39.1109C19.4292 39.1109 19.2027 39.0883 18.9989 39.043C18.6366 40.2426 18.3196 41.4196 18.0479 42.5739C19.95 43.3661 21.988 44.1356 24.1619 44.9278C22.8938 42.936 21.739 40.9443 20.652 38.9299ZM22.5315 35.2632C22.6221 35.5348 22.6674 35.8291 22.6674 36.1233C22.6674 36.9381 22.3277 37.7076 21.7842 38.2282C21.7163 38.2961 21.6484 38.364 21.5804 38.4093C22.6447 40.4011 23.8223 42.3928 25.0677 44.3846C25.3168 44.1583 25.6112 43.9772 25.9509 43.864C25.498 40.4463 25.2036 37.0513 24.9998 33.7467C24.2525 34.1768 23.5052 34.6295 22.7806 35.0821C22.69 35.15 22.5995 35.1953 22.5315 35.2632ZM20.9237 33.4072C21.2408 33.5657 21.5352 33.7694 21.7842 33.9957C21.8748 34.0863 21.9654 34.1994 22.056 34.3126L22.2371 34.1994C23.1203 33.6336 24.0487 33.0904 24.9545 32.5698C24.9319 32.185 24.9092 31.8229 24.9092 31.4381C24.1846 31.3023 23.46 31.1891 22.758 31.076C22.4862 31.0307 22.1919 30.9854 21.9201 30.9402C21.5804 31.755 21.2408 32.5698 20.9237 33.4072ZM19.6556 33.1356C19.7462 33.1356 19.8142 33.1356 19.9047 33.1356C20.1991 32.3435 20.5161 31.5739 20.8558 30.7817C19.8142 30.6233 18.7951 30.4875 17.7988 30.3743C17.8667 30.5328 17.9346 30.6912 18.0026 30.8496C18.3196 31.6192 18.6593 32.3887 18.9989 33.1809C19.2027 33.1583 19.4292 33.1356 19.6556 33.1356ZM16.9836 57.648C16.7798 57.4443 16.4854 57.3085 16.1457 57.3085C15.8287 57.3085 15.5343 57.4443 15.3078 57.648C15.104 57.8517 14.9682 58.1459 14.9682 58.4854C14.9682 58.8023 15.104 59.0965 15.3078 59.3229C15.5116 59.5266 15.806 59.6624 16.1457 59.6624C16.4627 59.6624 16.7571 59.5266 16.9836 59.3229C17.1874 59.1192 17.3232 58.8249 17.3232 58.4854C17.3232 58.1686 17.1874 57.8743 16.9836 57.648ZM39.8774 74.5328C39.5377 74.329 39.0622 74.2159 38.5414 74.2159C37.9979 74.2159 37.5224 74.329 37.2053 74.5328C36.9789 74.6686 36.8657 74.8044 36.8657 74.9175C36.8657 75.0307 37.0015 75.1665 37.2053 75.3023C37.545 75.506 38.0205 75.6192 38.5414 75.6192C39.0848 75.6192 39.5604 75.506 39.8774 75.3023C40.1039 75.1665 40.2171 75.0307 40.2171 74.9175C40.2171 74.7817 40.1039 74.6459 39.8774 74.5328ZM41.4625 74.2159C41.4852 74.2838 41.5305 74.3517 41.5531 74.4196C46.0368 74.0574 50.2713 72.8805 54.1436 71.0472C53.1246 70.9793 52.015 70.7756 50.8375 70.3908C48.9353 69.757 46.8746 68.7159 44.6781 67.2673C43.9082 70.3002 42.9118 72.6542 41.6663 74.0122C41.5984 74.0801 41.5305 74.148 41.4625 74.2159ZM19.0216 7.60477C19.1575 7.19737 19.1348 6.83523 18.9537 6.63152C18.7725 6.40519 18.4102 6.33728 17.9799 6.38255C17.4365 6.45045 16.8477 6.72206 16.3042 7.17473C15.7607 7.62741 15.3984 8.17062 15.2399 8.69119C15.104 9.0986 15.1267 9.46074 15.3078 9.66444C15.489 9.89078 15.8513 9.95868 16.2816 9.91341C16.8024 9.84551 17.3912 9.59654 17.912 9.14387L17.9573 9.0986C18.4781 8.66856 18.8631 8.12535 19.0216 7.60477ZM6.99722 56.1768C6.99722 55.792 6.83871 55.3167 6.56697 54.864C6.29523 54.4114 5.93292 54.0718 5.59325 53.8908C5.3668 53.7776 5.18564 53.7323 5.07242 53.8002C4.98184 53.8681 4.93655 54.0492 4.93655 54.2982C4.93655 54.683 5.09506 55.1583 5.3668 55.6109C5.63854 56.0636 6.00085 56.4031 6.34052 56.5842C6.56697 56.6974 6.74813 56.7426 6.86135 56.6747C6.97458 56.6295 7.01987 56.4484 6.99722 56.1768ZM72.984 23.0863C72.6444 22.8146 72.3047 22.7015 72.033 22.792C71.5121 22.9505 71.331 23.6295 71.3763 24.3764C71.3989 24.7385 71.4668 25.1007 71.5801 25.4402C71.6933 25.8023 71.8518 26.1418 72.033 26.436C72.4406 27.0698 72.9614 27.4998 73.4822 27.3188C73.754 27.2282 73.9578 26.934 74.071 26.5266C74.2069 26.006 74.1842 25.3496 73.9578 24.6706C73.754 23.9916 73.3916 23.4258 72.984 23.0863ZM71.1045 21.683C71.1498 21.6603 71.1725 21.6377 71.2177 21.6151C69.4515 18.1068 67.1417 14.8928 64.379 12.1542C61.8881 9.66444 59.0349 7.51424 55.8872 5.83934C56.6572 6.69942 57.3139 7.71794 57.88 8.84963C59.1707 11.4751 59.918 14.8249 60.0765 18.7179C60.8238 18.899 61.4126 19.4422 61.6617 20.1439C64.4696 20.0081 66.9152 20.1891 68.8853 20.755C69.7458 21.0039 70.4705 21.3208 71.1045 21.683ZM45.5612 22.6336C45.1083 22.1809 44.4743 21.9093 43.7949 21.9093C43.093 21.9093 42.4816 22.1809 42.0287 22.6336C41.5758 23.0863 41.304 23.72 41.304 24.399C41.304 25.1007 41.5758 25.7118 42.0287 26.1644C42.4816 26.6171 43.1156 26.8887 43.7949 26.8887C44.4969 26.8887 45.1083 26.6171 45.5612 26.1644C46.0141 25.7118 46.2859 25.078 46.2859 24.399C46.2859 23.72 46.0141 23.0863 45.5612 22.6336ZM41.9381 20.9587C42.006 20.936 42.0513 20.8908 42.1192 20.8681C41.9381 20.0986 41.7569 19.3743 41.5758 18.65C40.8964 18.5369 40.2171 18.4463 39.5377 18.3784C40.3303 19.1932 41.1455 20.0533 41.9381 20.9587ZM39.9906 25.3949C39.9001 25.078 39.8548 24.7385 39.8548 24.399C39.8548 23.3126 40.285 22.3393 41.0096 21.6377C41.0323 21.6151 41.0549 21.5924 41.0776 21.5698C40.0133 20.3702 38.949 19.2385 37.9073 18.1974C34.8729 17.9258 31.9065 17.8579 29.0532 18.0163C27.9663 19.578 26.902 21.2303 25.9056 22.9731C25.8377 25.3949 25.8377 27.9525 25.9056 30.578C26.0641 30.6007 26.2226 30.6459 26.3585 30.6686C26.6529 30.1027 27.2416 29.7179 27.9436 29.7179C28.4418 29.7179 28.8947 29.9216 29.2117 30.2385C32.7669 28.4278 36.3901 26.7982 39.9906 25.3949ZM43.5911 28.3146C42.5948 28.2694 41.689 27.8393 41.0323 27.183C40.7832 26.934 40.5794 26.685 40.4209 26.3908C36.843 27.7714 33.2425 29.3784 29.7326 31.1891C29.7326 31.2344 29.7552 31.3023 29.7552 31.3476C34.1256 32.2756 38.7452 33.4751 43.3194 34.8558C43.5685 34.4258 43.9308 34.1089 44.4064 33.9278C44.2026 32.2077 43.9535 30.4649 43.6817 28.7447C43.6364 28.5863 43.6138 28.4505 43.5911 28.3146ZM45.9915 27.6356C45.5839 27.9072 45.131 28.1109 44.6102 28.2241L44.6554 28.5636C44.9272 30.3064 45.1763 32.0492 45.3801 33.7694C46.467 33.8825 47.3049 34.8105 47.3049 35.9196C47.3049 35.9875 47.3049 36.0554 47.3049 36.1007C48.2107 36.3949 49.1165 36.7118 50.0223 37.0286C50.9507 37.3455 51.8338 37.6624 52.717 38.0019C50.7695 34.5163 48.5051 31.0081 45.9915 27.6356ZM47.6672 23.8784C47.6898 24.0595 47.7125 24.2179 47.7125 24.399C47.7125 25.3496 47.3728 26.2323 46.8067 26.9114C49.6373 30.6912 52.1509 34.6521 54.2795 38.5677C54.755 38.7488 55.2305 38.9299 55.6834 39.1109C55.8872 38.5225 56.0684 37.934 56.2722 37.3229C57.7441 32.5698 58.6273 28.043 58.9669 23.9237C57.6309 23.2673 56.2496 22.6562 54.8003 22.0904C52.7396 22.4978 50.611 23.0184 48.3918 23.6747C48.1201 23.7653 47.8936 23.8105 47.6672 23.8784ZM43.7949 20.506C44.8819 20.506 45.8556 20.936 46.5576 21.6603C46.8973 21.9998 47.1917 22.4299 47.3955 22.8825C47.6219 22.8146 47.8484 22.7467 48.0522 22.6788C49.7052 22.2035 51.3356 21.7735 52.9208 21.434C49.977 20.3928 46.784 19.5554 43.4553 18.9669C43.2062 18.9216 42.9571 18.8764 42.7306 18.8311C42.8665 19.397 43.0024 19.9628 43.1382 20.5513C43.342 20.5286 43.5685 20.506 43.7949 20.506ZM30.8648 56.4484C30.4345 56.0183 29.8458 55.7467 29.1891 55.7467C28.5324 55.7467 27.9436 56.0183 27.5134 56.4484C27.0831 56.8784 26.8114 57.4669 26.8114 58.1233C26.8114 58.7797 27.0831 59.3682 27.5134 59.7982C27.9436 60.2282 28.5324 60.4998 29.1891 60.4998C29.8458 60.4998 30.4345 60.2282 30.8648 59.7982C31.295 59.3682 31.5668 58.7797 31.5668 58.1233C31.5668 57.4669 31.295 56.8784 30.8648 56.4484ZM60.7785 52.9175C60.5747 52.7138 60.2803 52.578 59.9407 52.578C59.6236 52.578 59.3293 52.7138 59.1028 52.9175C58.899 53.1212 58.7631 53.4155 58.7631 53.755C58.7631 54.0718 58.899 54.3661 59.1028 54.5924C59.3066 54.7961 59.601 54.9319 59.9407 54.9319C60.2577 54.9319 60.5521 54.7961 60.7785 54.5924C60.9823 54.3887 61.1182 54.0945 61.1182 53.755C61.1182 53.4155 61.005 53.1212 60.7785 52.9175ZM57.495 52.9628C57.6309 52.5554 57.8347 52.1932 58.1291 51.899C58.3102 51.7179 58.514 51.5595 58.7405 51.4463C58.2649 49.9751 57.7215 48.4813 57.0874 46.9422C56.8157 46.2858 56.5213 45.6068 56.2269 44.9505C55.4796 45.4031 54.7324 45.8558 53.9624 46.3085C53.2831 47.8023 52.5811 49.2509 51.8338 50.6542C52.2867 51.0616 52.5811 51.65 52.6264 52.3064C54.3248 52.578 55.9552 52.8044 57.495 52.9628ZM60.0312 56.3126C60.0086 56.3126 59.9859 56.3126 59.9633 56.3126C59.2613 56.3126 58.6046 56.0183 58.1291 55.5657C57.7215 55.1583 57.4497 54.6151 57.3818 54.0266C55.8193 53.8455 54.1662 53.6192 52.4452 53.3476C52.0829 54.2076 51.2451 54.8188 50.2487 54.8188C49.9996 54.8188 49.7505 54.7735 49.5241 54.7056C48.5051 56.3579 47.4408 57.9422 46.3538 59.4134C51.4262 59.255 56.1363 58.4402 60.1897 57.0595C60.1218 56.8105 60.0765 56.5616 60.0312 56.3126ZM62.4542 54.4114C62.341 54.8414 62.0919 55.2488 61.7975 55.5657C61.5937 55.7694 61.3446 55.9505 61.0729 56.0863C61.1182 56.29 61.1635 56.5163 61.2088 56.72L61.2767 56.6974C63.043 56.041 64.6508 55.2941 66.1227 54.434C64.9678 54.4793 63.745 54.4566 62.4542 54.4114ZM59.9633 51.1521C60.6653 51.1521 61.322 51.4463 61.7975 51.899C62.1825 52.2838 62.4542 52.7817 62.5222 53.3476C64.6055 53.4381 66.4171 53.3928 67.9343 53.2118C69.4515 52.1253 70.7196 50.9258 71.7386 49.613C71.3083 49.0019 70.6516 48.3455 69.7911 47.6665C68.0928 46.3085 65.6471 44.8146 62.4995 43.2529C62.0013 43.9093 61.2088 44.362 60.3256 44.362C59.5783 44.362 58.899 44.0677 58.4235 43.5698C58.0159 43.8414 57.5856 44.113 57.178 44.3846C57.495 45.1089 57.812 45.8332 58.1064 46.5574C58.7405 48.1192 59.3066 49.6583 59.8048 51.1747C59.8048 51.1521 59.8727 51.1521 59.9633 51.1521ZM8.55971 46.4443C8.35591 46.2406 8.06153 46.1048 7.72185 46.1048C7.38218 46.1048 7.11045 46.2406 6.884 46.4443C6.6802 46.648 6.54433 46.9422 6.54433 47.2817C6.54433 47.6212 6.6802 47.8928 6.884 48.1192C7.0878 48.3229 7.38218 48.4587 7.72185 48.4587C8.06153 48.4587 8.33326 48.3229 8.55971 48.1192C8.76351 47.9155 8.89938 47.6212 8.89938 47.2817C8.89938 46.9422 8.76351 46.6706 8.55971 46.4443ZM59.9633 68.1953C59.9633 68.1727 59.9407 68.1727 59.918 68.15C59.7369 67.9463 59.3519 67.8784 58.9216 67.9237C58.3782 67.9916 57.7668 68.2179 57.2233 68.6254C57.0874 68.7159 56.9515 68.8291 56.8383 68.9422C56.476 69.2817 56.2269 69.6665 56.1363 70.006C56.0684 70.255 56.0684 70.4587 56.1816 70.6171C56.1816 70.6398 56.2043 70.6398 56.2269 70.6624C56.4081 70.8661 56.793 70.934 57.2233 70.8887C57.7668 70.8208 58.3782 70.5945 58.9216 70.1871C59.0575 70.0965 59.1934 69.9834 59.3066 69.8702C59.6689 69.5307 59.918 69.1459 60.0086 68.8064C60.0765 68.5574 60.0765 68.3311 59.9633 68.1953ZM20.4709 6.76733C21.6257 6.76733 22.8938 7.0163 24.2299 7.44634C25.0224 7.69531 25.8377 8.03481 26.6982 8.44222C27.3775 5.97514 28.2154 4.02864 29.2117 2.73852C29.1891 2.71589 29.1891 2.69325 29.1664 2.64798C26.0415 3.4628 23.075 4.70765 20.3576 6.26938C20.4029 6.42782 20.4482 6.60889 20.4709 6.76733ZM5.61589 45.8105C3.98547 43.9093 2.76265 41.9175 2.01538 39.8805C2.24182 44.3167 3.26084 48.5266 4.9139 52.4196C4.93655 52.4196 4.98184 52.4196 5.00448 52.3969C5.00448 52.3064 5.02713 52.2159 5.02713 52.1253C5.14035 51.1974 5.45738 50.2241 5.97821 49.183C5.95556 49.1603 5.93292 49.1377 5.91027 49.1151C5.43473 48.6398 5.163 48.006 5.163 47.2817C5.14035 46.7385 5.32151 46.2179 5.61589 45.8105ZM8.87674 44.9731C9.9184 43.7735 11.1412 42.5286 12.5678 41.2838C9.05789 39.5863 6.31788 37.934 4.46101 36.4402C3.89489 35.9875 3.39671 35.5348 3.01175 35.1048C2.74001 35.2406 2.46827 35.3311 2.19653 35.3085C2.24182 38.6583 3.73638 41.9854 6.38581 45.0636C6.77077 44.8146 7.24632 44.6788 7.7445 44.6788C8.12946 44.7015 8.51442 44.792 8.87674 44.9731ZM9.96369 48.5718C11.5941 49.9072 13.451 51.1521 15.489 52.3064C15.6702 49.4546 16.1004 46.4216 16.825 43.2076C15.6928 42.7323 14.6059 42.257 13.5868 41.7817C12.0696 43.0945 10.7789 44.3846 9.69195 45.6295C10.0769 46.0821 10.3034 46.648 10.3034 47.2817C10.3034 47.757 10.1901 48.1871 9.96369 48.5718ZM15.3984 56.0183C15.3984 55.8599 15.3984 55.7241 15.3984 55.5657C15.3984 54.8867 15.3984 54.185 15.4211 53.4607C13.134 52.2159 11.0733 50.8352 9.2617 49.364C8.83145 49.6809 8.31062 49.862 7.72185 49.862C7.42747 49.862 7.13309 49.8167 6.884 49.7262C6.45375 50.6315 6.18201 51.469 6.09143 52.2611C6.06879 52.3743 6.06879 52.4875 6.06879 52.578C6.13672 52.6007 6.20466 52.6459 6.27259 52.6686C6.81606 52.9628 7.35954 53.4607 7.76714 54.1397C8.17475 54.7961 8.4012 55.5204 8.42384 56.1315C8.42384 56.2447 8.42384 56.3579 8.4012 56.471C8.89938 56.7426 9.51079 56.969 10.1901 57.1727C11.2091 57.4669 12.3867 57.648 13.6774 57.7385C13.7906 57.3085 14.0171 56.9463 14.3341 56.6295C14.6059 56.3579 14.9908 56.1315 15.3984 56.0183ZM18.5913 57.648C20.1085 57.5122 21.7163 57.2858 23.4147 56.969C20.9464 56.1089 18.614 55.113 16.4627 54.0039C16.4401 54.5245 16.4401 55.0451 16.4627 55.543C16.4627 55.6788 16.4627 55.792 16.4627 55.9278C17.0515 55.9957 17.5723 56.2673 17.9799 56.6747C18.2517 56.9463 18.4555 57.2858 18.5913 57.648ZM27.8078 54.5924C27.4228 52.827 27.0605 50.9937 26.7434 49.0698C25.3168 49.0245 24.1619 47.8476 24.1619 46.399C24.1619 46.2858 24.1619 46.15 24.1846 46.0369C21.9201 45.2221 19.7915 44.4072 17.8214 43.6151C17.0968 46.8743 16.6665 49.9751 16.508 52.8496C19.2027 54.2756 22.2145 55.543 25.4753 56.5616C25.5659 56.5389 25.6791 56.5163 25.7697 56.4937C25.9509 56.1089 26.2 55.7694 26.4944 55.4525C26.8793 55.0904 27.3096 54.7961 27.8078 54.5924ZM31.3403 55.0225L31.4988 54.9772C30.2987 53.5513 29.1664 52.1027 28.0568 50.6089C28.3059 51.899 28.555 53.1665 28.8268 54.3661C28.94 54.3661 29.0759 54.3435 29.1891 54.3435C29.9816 54.3435 30.7289 54.5924 31.3403 55.0225ZM32.9481 58.3949L33.1066 58.4175C33.6274 58.5081 34.1483 58.5986 34.6691 58.6891C34.7144 58.6891 34.7597 58.7118 34.805 58.7118C33.9445 57.8064 33.084 56.8558 32.2235 55.8373H32.1782C32.6537 56.471 32.9481 57.2632 32.9481 58.1233C32.9708 58.2138 32.9708 58.3044 32.9481 58.3949ZM30.7063 61.5863C31.68 64.6871 32.7217 67.3126 33.8086 69.3723C33.8765 69.4854 33.9218 69.5986 33.9898 69.7118C36.2542 68.4216 38.5414 66.6109 40.7832 64.3476C39.2207 63.0574 37.6129 61.5863 36.0051 59.934C35.507 59.8661 35.0088 59.7982 34.5106 59.7303C33.9898 59.6398 33.4463 59.5492 32.9255 59.4587L32.7443 59.4361C32.5631 59.9566 32.2461 60.4319 31.8612 60.8167C31.5215 61.1336 31.1365 61.4052 30.7063 61.5863ZM16.9383 60.9525C17.3006 62.9216 17.8441 64.6871 18.5687 66.1809C19.3386 67.7653 20.3123 69.0554 21.4672 70.006C22.1466 69.6891 23.1882 69.7118 24.1619 70.1192C25.113 70.5266 25.7471 71.183 25.8829 71.8167C26.2453 71.862 26.6076 71.862 26.9699 71.862C28.9173 71.8393 30.978 71.2509 33.0613 70.1871C32.9934 70.0739 32.9481 69.9607 32.8802 69.8476C31.7706 67.7426 30.6836 65.0492 29.7099 61.8805C29.5287 61.9031 29.3702 61.9258 29.1891 61.9258C28.1474 61.9258 27.1963 61.4957 26.517 60.8167C25.8377 60.1377 25.4074 59.1871 25.4074 58.1459C25.4074 57.9875 25.4074 57.8064 25.4301 57.648C23.075 58.1686 20.8105 58.5081 18.7272 58.7118C18.6819 59.3455 18.4102 59.9114 17.9799 60.3188C17.6855 60.5904 17.3232 60.8167 16.9383 60.9525ZM7.76714 57.7611C9.19376 59.9566 10.8242 61.9937 12.6811 63.827C14.5832 65.7282 16.7118 67.4258 18.9989 68.8743C18.5008 68.1953 18.0479 67.4484 17.6403 66.6336C16.8477 65.0266 16.2816 63.148 15.8966 61.043C15.2852 60.9751 14.7417 60.7035 14.3115 60.2961C13.9039 59.9114 13.6548 59.3681 13.5642 58.8023C12.2055 58.7118 10.9601 58.5081 9.87311 58.2138C9.17112 58.0101 8.55971 57.7838 8.01624 57.4895C7.9483 57.5801 7.85772 57.6706 7.76714 57.7611ZM35.7561 73.9443C35.0314 73.2426 34.2841 72.292 33.5822 71.0924C31.5668 72.1336 29.5514 72.7447 27.6266 72.8805C30.1402 73.6727 32.7896 74.1932 35.507 74.4196C35.5749 74.2385 35.6655 74.1027 35.7561 73.9443ZM40.7605 73.4237C40.8058 73.3784 40.8511 73.3332 40.8738 73.2879C42.0513 71.9751 43.025 69.6439 43.7497 66.6109C43.0477 66.113 42.323 65.5698 41.5758 64.9813C39.266 67.3352 36.8657 69.2365 34.488 70.5945C35.1673 71.7262 35.8693 72.6089 36.5486 73.2653C37.0695 72.971 37.7714 72.8126 38.5187 72.8126C39.3113 72.8126 40.0359 73.0163 40.5567 73.3105C40.6473 73.3558 40.6926 73.3784 40.7605 73.4237ZM59.8274 66.5883C59.918 66.3846 59.986 66.1809 60.0539 65.9546C60.7332 63.8723 60.8012 61.2015 60.3483 58.1233C56.091 59.5266 51.1545 60.364 45.8556 60.4772C45.6292 62.5369 45.3121 64.4381 44.9272 66.1583C47.1464 67.6747 49.2523 68.7385 51.1545 69.3723C52.4452 69.8023 53.6454 70.006 54.7097 70.006C54.7324 69.8928 54.755 69.757 54.7776 69.6439C54.9362 69.078 55.3211 68.4669 55.8646 67.969C56.0231 67.8105 56.1816 67.6747 56.3854 67.5389C57.1327 66.9731 57.9932 66.6562 58.7631 66.5657C59.1481 66.4978 59.4878 66.5204 59.8274 66.5883ZM73.2331 28.7673C72.8255 29.8085 72.2141 30.9402 71.3989 32.0945C73.2331 34.3805 74.5012 36.7797 75.0674 39.2467C75.09 38.8393 75.09 38.4093 75.09 37.9793C75.09 34.7653 74.6824 31.6418 73.8898 28.6542C73.6634 28.7447 73.4369 28.7673 73.2331 28.7673ZM70.3572 22.4751C69.8591 22.2035 69.2703 21.9772 68.591 21.7735C66.7341 21.2529 64.4017 21.0718 61.7296 21.2077C61.5937 22.0904 60.9144 22.792 60.0312 22.9731C60.0312 23.0863 60.0086 23.2221 60.0086 23.3352C62.7486 24.7385 65.1716 26.3229 67.2776 28.0204C68.5457 29.0616 69.6779 30.148 70.6743 31.2797C71.3536 30.3064 71.8518 29.3784 72.1915 28.5184C71.6706 28.2467 71.1951 27.7714 70.8328 27.183C70.5837 26.7756 70.3799 26.3455 70.2214 25.8702C70.0629 25.3949 69.9723 24.9196 69.9496 24.4443C69.927 23.72 70.0402 23.0184 70.3572 22.4751ZM38.5187 0.38461C42.1872 0.38461 45.7424 0.905186 49.0938 1.90107C50.0223 1.35786 51.5847 1.33523 53.034 1.94634C54.3927 2.51218 55.2985 3.48543 55.4343 4.39078C59.0349 6.20148 62.2957 8.57802 65.1037 11.3846C68.0022 14.2817 70.4252 17.6315 72.2594 21.3435C72.8029 21.3661 73.369 21.5924 73.8672 21.9998C74.4786 22.4978 74.9994 23.29 75.3164 24.2179C75.6108 25.1686 75.6561 26.0965 75.4523 26.8661C75.3391 27.3414 75.1126 27.7488 74.8183 28.0657C75.6788 31.2344 76.1317 34.5389 76.1317 37.9793C76.1317 39.0883 76.0864 40.1974 75.9958 41.2838C76.7884 41.7365 77.1733 43.1171 76.8789 44.4978C76.6072 45.7653 75.8826 46.648 75.1126 46.7159C73.4822 53.5739 69.9496 59.7077 65.1263 64.5513C63.9488 65.7282 62.6807 66.8373 61.3673 67.8332C61.5031 68.2406 61.5031 68.6933 61.3673 69.1459C61.2088 69.7118 60.8238 70.3229 60.2803 70.8435C60.1218 71.0019 59.9633 71.1377 59.7595 71.2735C59.0122 71.8393 58.1517 72.1562 57.3818 72.2467C56.5213 72.3373 55.7514 72.1562 55.2305 71.6356C51.0413 73.7179 46.3991 75.0533 41.5078 75.4381C41.3493 75.8455 41.0096 76.2076 40.5567 76.4566C40.0133 76.7735 39.2886 76.9546 38.5187 76.9546C37.7262 76.9546 37.0015 76.7509 36.4807 76.4566C36.0278 76.185 35.6881 75.8455 35.5296 75.4381C31.8838 75.1439 28.3739 74.3517 25.113 73.1068C24.4337 73.4011 23.4373 73.3558 22.4862 72.971C21.4672 72.541 20.8105 71.7941 20.7426 71.1151C17.4817 69.3723 14.5153 67.1542 11.9111 64.5513C9.96369 62.6048 8.22004 60.4319 6.72548 58.078C6.38581 58.078 6.0235 57.9649 5.68383 57.7838C5.14035 57.4895 4.59688 56.9916 4.18927 56.3126C3.78167 55.6562 3.55522 54.9319 3.53257 54.3208C3.50993 53.755 3.66844 53.257 3.98547 52.8949C2.01538 48.3455 0.905783 43.2982 0.905783 38.0019C0.905783 36.9155 0.951073 35.8291 1.04165 34.7653C0.31702 33.9731 -6.82473e-06 32.434 0.31702 30.8723C0.611401 29.4463 1.38132 28.3826 2.21918 28.043C3.96283 21.6603 7.35954 15.9566 11.9111 11.4072C12.4999 10.8188 13.134 10.2303 13.768 9.66444C13.6774 9.2344 13.7227 8.75909 13.8586 8.28379C14.085 7.53687 14.6059 6.74469 15.3758 6.11095C16.1231 5.4772 16.9836 5.09243 17.7761 5.00189C18.5008 4.91136 19.1801 5.04716 19.7009 5.45457C22.6221 3.75704 25.815 2.44428 29.1664 1.5842C29.574 0.792017 30.7289 0.158272 32.0876 0.0677374C33.016 0.0224699 33.8313 0.248807 34.3521 0.633581C35.7334 0.475145 37.1147 0.38461 38.5187 0.38461ZM12.1829 20.8681C12.1602 20.755 12.1602 20.6192 12.1602 20.506C12.1602 19.6007 12.7263 18.8085 13.5189 18.4916C13.2472 15.8208 13.383 13.4443 14.0171 11.543C14.1077 11.2488 14.2209 10.9772 14.3341 10.7056C14.3115 10.683 14.2888 10.6603 14.2662 10.6377C13.7227 11.113 13.1792 11.6336 12.6584 12.1315C8.31062 16.4998 5.04977 21.9546 3.32877 28.043C5.23093 25.1459 8.28797 22.7241 12.1829 20.8681ZM14.2209 22.6788C13.5642 22.6562 12.9754 22.3167 12.5905 21.8414C8.85409 23.6295 5.93292 25.9607 4.14398 28.7221C4.3025 28.9484 4.43836 29.1974 4.55159 29.4916C7.11045 28.7673 11.1865 28.6994 16.191 29.1747C15.3758 26.9114 14.6964 24.7385 14.2209 22.6788ZM16.4854 20.2797C16.4854 20.3476 16.508 20.4381 16.508 20.506C16.508 21.3661 16.0098 22.113 15.2626 22.4751C15.7607 24.6253 16.4627 26.9114 17.3685 29.2879C18.614 29.4237 19.9274 29.6048 21.2861 29.7858C22.373 27.2961 23.5732 24.9196 24.8639 22.6788C24.9092 21.7056 24.9545 20.7323 24.9998 19.8044C25.0224 19.3291 25.0677 18.8537 25.113 18.3784C22.0107 18.7632 19.1122 19.397 16.4854 20.2797ZM14.5606 18.3558C15.2173 18.4237 15.7834 18.7858 16.1457 19.3064C18.9084 18.3784 21.9654 17.7221 25.2262 17.3146C25.498 14.4175 25.9056 11.7694 26.4491 9.50601C25.5659 9.07597 24.7281 8.73646 23.9355 8.46486C22.6674 8.05745 21.4899 7.83111 20.4482 7.83111C20.4256 7.89901 20.4029 7.96691 20.4029 8.03481C20.1765 8.78173 19.6556 9.55128 18.931 10.1624L18.8857 10.2077C18.1384 10.8414 17.2779 11.2262 16.4854 11.3167C16.0551 11.362 15.6702 11.3393 15.3078 11.2488C15.2173 11.4525 15.1493 11.6562 15.0814 11.8826C14.4247 13.648 14.2888 15.8435 14.5606 18.3558Z" fill="white"></path></mask><g mask="url(#mask0_45_90)"><path d="M77.1733 0H0V77H77.1733V0Z" fill="#51545A"></path></g><path d="M244.178 54.0944C243.952 53.5964 243.658 53.1437 243.295 52.7137L221.851 24.0594C220.854 22.7013 219.564 21.6376 217.978 20.8907C216.393 20.1211 214.718 19.7363 212.951 19.7363C211.072 19.7363 209.305 20.1664 207.652 21.0038C205.999 21.8639 204.686 22.9503 203.69 24.3083L182.245 53.1437C181.656 53.8001 181.362 54.6376 181.362 55.7013C181.362 56.8783 181.769 57.8742 182.607 58.689C183.422 59.5038 184.419 59.9339 185.596 59.9339C186.887 59.9339 187.974 59.4133 188.857 58.3495L209.6 30.8495C209.962 30.3742 210.438 29.8536 211.049 29.3104C211.66 28.7446 212.295 28.473 212.951 28.473C213.608 28.473 214.219 28.7672 214.853 29.3104C215.465 29.8762 215.986 30.3742 216.393 30.8495L236.955 58.2816C237.77 59.3906 238.902 59.9565 240.306 59.9565C241.484 59.9565 242.48 59.5491 243.295 58.7116C244.11 57.8968 244.541 56.9009 244.541 55.724C244.541 55.1355 244.427 54.5923 244.178 54.0944Z" fill="#51545A"></path><path d="M320.015 22.8827C318.974 20.8004 316.437 19.9855 314.354 21.0267L295.061 30.7818C292.978 31.823 292.14 34.3806 293.204 36.4629C293.951 37.9341 295.423 38.7715 296.963 38.7715C297.597 38.7715 298.254 38.6131 298.865 38.3189L318.158 28.5637C320.242 27.5226 321.08 24.965 320.015 22.8827Z" fill="#51545A"></path><path d="M286.615 36.7804L255.093 21.0273C253.01 19.9862 250.474 20.8236 249.432 22.9285C248.39 25.0108 249.228 27.5458 251.311 28.587L280.682 43.2763V54.91C280.682 57.2413 282.584 59.1199 284.916 59.1199C287.249 59.1199 289.128 57.2187 289.128 54.91V41.1034C289.128 40.4923 288.992 39.9038 288.743 39.3833C288.449 38.2969 287.724 37.3462 286.615 36.7804Z" fill="#51545A"></path><path d="M156.951 50.8128H100.86C99.7953 50.8128 99.2066 50.6544 98.9801 50.6091L155.434 29.605L157.132 28.9033C159.283 28.0206 161.344 27.0021 161.344 24.6708C161.344 22.3395 159.442 20.4609 157.132 20.4609H97.8253C95.4928 20.4609 93.6133 22.3622 93.6133 24.6708C93.6133 27.0021 95.5155 28.9033 97.8253 28.9033H131.521L97.01 42.0535C92.7528 43.2531 89.8996 47.5762 90.4884 51.8313C90.9639 55.249 93.9756 59.2552 100.837 59.2552H156.905C159.238 59.2552 161.117 57.3539 161.117 55.0453C161.117 52.7367 159.26 50.8128 156.951 50.8128Z" fill="#51545A"></path><path d="M395.332 53.0309C395.106 52.5329 394.811 52.0803 394.449 51.6502L373.004 22.9959C372.008 21.6379 370.717 20.5741 369.132 19.8272C367.547 19.0576 365.871 18.6729 364.105 18.6729C362.226 18.6729 360.459 19.1029 358.806 19.9403C357.153 20.8004 355.84 21.8868 354.843 23.2449L333.399 52.0803C332.81 52.7366 332.516 53.5741 332.516 54.6379C332.516 55.8148 332.923 56.8107 333.761 57.6255C334.576 58.4403 335.573 58.8704 336.75 58.8704C338.041 58.8704 339.128 58.3498 340.011 57.286L360.754 29.786C361.116 29.3107 361.591 28.7901 362.203 28.2469C362.814 27.6811 363.448 27.4095 364.105 27.4095C364.762 27.4095 365.373 27.7037 366.007 28.2469C366.619 28.8128 367.139 29.3107 367.547 29.786L388.108 57.2181C388.924 58.3272 390.056 58.893 391.46 58.893C392.637 58.893 393.634 58.4856 394.449 57.6482C395.264 56.8333 395.694 55.8375 395.694 54.6605C395.694 54.072 395.581 53.5288 395.332 53.0309Z" fill="#51545A"></path></g><defs><clipPath id="clip0_45_90"><rect width="395.694" height="77" fill="white"></rect></clipPath></defs></svg>