<svg xmlns="http://www.w3.org/2000/svg" width="185" height="36" viewBox="0 0 185 36" fill="none"><g clip-path="url(#clip0_7_199)"><path d="M25.8115 18.8889C25.8327 18.8466 25.8433 18.8042 25.8644 18.7513L25.7162 18.6878C25.748 18.7619 25.7797 18.8254 25.8115 18.8889ZM25.875 20.1164C25.7692 20.3704 25.6739 20.6243 25.568 20.8783C25.748 20.7725 25.9174 20.6667 26.0868 20.5608C26.0127 20.4233 25.9491 20.2751 25.875 20.1164ZM26.3197 18.9418C26.2562 19.1217 26.1821 19.3122 26.1185 19.4921C26.2562 19.7672 26.3832 20.0317 26.5103 20.3069C26.6797 20.2011 26.8596 20.0847 27.029 19.9788C26.9655 19.8307 26.9337 19.6614 26.9337 19.4815C26.9337 19.3862 26.9443 19.291 26.9655 19.2063C26.7432 19.1217 26.5314 19.0265 26.3197 18.9418ZM20.5709 30.6243C20.6873 30.0529 20.7932 29.4392 20.8779 28.7831C20.772 28.9206 20.6556 29.0476 20.5497 29.1746C20.2956 29.4709 20.0415 29.7566 19.7874 30.0317C20.0521 30.2434 20.3168 30.4444 20.5709 30.6243ZM13.1069 22.8148C13.7739 23.746 14.4832 24.6561 15.2349 25.545C16.643 25.1005 18.0829 24.5608 19.5333 23.9471C17.6065 23.4921 15.6055 22.9418 13.6363 22.3175C13.5092 22.5185 13.3293 22.6984 13.1069 22.8148ZM12.1329 14.7936C12.1329 14.8466 12.1329 14.8995 12.1435 14.9524L12.2494 14.8889C12.2388 14.8571 12.2388 14.836 12.2388 14.8042L12.1329 14.7936ZM17.5429 3.38624C17.5218 3.34391 17.5006 3.30159 17.4794 3.26984C17.003 2.37037 16.516 1.7037 16.0396 1.31217C15.7749 1.54497 15.3514 1.71428 14.8856 1.74603C14.5574 1.76719 14.2609 1.71428 14.028 1.59788C13.5833 2.16931 13.2128 3.0582 12.9164 4.17989C13.4986 4.48677 14.1021 4.86772 14.7268 5.30159C14.8644 5.19577 15.0338 5.13227 15.2138 5.13227C15.3302 5.13227 15.4467 5.15344 15.5526 5.20635C16.209 4.5291 16.8759 3.91534 17.5429 3.38624ZM21.2061 23.1958C21.2061 21.4709 21.1214 19.6508 20.952 17.7884C20.4756 17.7037 20.105 17.291 20.105 16.7936C20.105 16.7831 20.105 16.7725 20.105 16.7619C17.9664 16.1164 15.8278 15.5661 13.7951 15.1323C13.6575 15.3862 13.3822 15.5661 13.0646 15.5661C12.8422 15.5661 12.6305 15.4709 12.4823 15.3333C12.3764 15.3968 12.2705 15.4497 12.1647 15.5132C12.2494 17.1217 12.3976 18.7831 12.6199 20.455C13.2763 20.4974 13.7951 21.037 13.7951 21.7037C13.7951 21.7566 13.7951 21.7989 13.7845 21.8519C15.9655 22.5503 18.1676 23.1429 20.285 23.619C20.592 23.4815 20.8991 23.3439 21.2061 23.1958ZM21.1955 23.8201V23.746L21.0791 23.7989L21.1955 23.8201ZM16.3042 0.89947L16.3254 0.910052C16.8654 1.34391 17.4053 2.06349 17.9135 3.03704C17.9241 3.04762 17.9347 3.06878 17.9347 3.07936C19.4169 1.98942 20.8991 1.33333 22.3072 1.21693C20.9308 0.857142 19.491 0.677248 18.0088 0.677248C17.4371 0.677248 16.8759 0.708994 16.3148 0.761904C16.3148 0.772486 16.3148 0.79365 16.3148 0.804232C16.3148 0.835978 16.3148 0.867724 16.3042 0.89947ZM11.6247 14.2011C11.593 13.3333 11.593 12.4762 11.6035 11.6614C11.2012 12.4127 10.8095 13.1958 10.4601 14.0106C10.5448 14.0212 10.6401 14.0423 10.7248 14.0529C11.0107 14.0952 11.3177 14.1481 11.6247 14.2011ZM21.6825 24.4233C21.6719 25.1217 21.6402 25.7884 21.5978 26.4444C21.5872 26.6667 21.5661 26.8889 21.5449 27.1111C21.9472 26.5397 22.3495 25.9471 22.7306 25.3228C22.5295 25.1323 22.3919 24.8571 22.3813 24.5608C22.1589 24.5185 21.9154 24.4656 21.6825 24.4233ZM21.6931 23.5132C21.6931 23.6508 21.6931 23.7884 21.6931 23.9259C21.9578 23.9788 22.2225 24.0317 22.4766 24.0847C22.6459 23.6931 23.0377 23.418 23.4929 23.418C23.5988 23.418 23.7047 23.4286 23.7999 23.4603C24.0435 23.0053 24.2658 22.5503 24.4987 22.0741C23.5776 22.582 22.6459 23.0582 21.6931 23.5132ZM21.439 17.7566C21.5978 19.545 21.6825 21.3016 21.6931 22.963C22.7624 22.4444 23.8211 21.8942 24.8481 21.3016C25.1128 20.7196 25.3563 20.127 25.5892 19.5132C25.4092 19.1534 25.2186 18.7831 25.0281 18.4233C24.4564 18.2011 23.8635 17.9894 23.2494 17.7778C22.8259 17.6296 22.4024 17.4921 21.979 17.3439C21.8413 17.5344 21.6613 17.6825 21.439 17.7566ZM32.7567 15.0265C32.2909 14.4868 31.7509 13.9788 31.1474 13.4815C30.2475 12.7407 29.1994 12.0529 28.0242 11.4392C27.8548 13.3439 27.4419 15.418 26.7644 17.6085C26.6691 17.9048 26.5738 18.1905 26.4785 18.4868C26.7008 18.582 26.9232 18.6667 27.1455 18.7619C27.3784 18.4339 27.7595 18.2222 28.183 18.2222C28.5112 18.2222 28.8183 18.3492 29.0406 18.5608C30.6604 17.3228 31.9097 16.127 32.7567 15.0265ZM33.826 22.7936C34.1118 22.3598 34.3342 21.9048 34.493 21.4286C34.3448 21.1323 34.3024 20.709 34.3977 20.2857C34.4612 19.9683 34.5989 19.6931 34.7682 19.5132C34.7047 18.1164 34.1118 16.7302 33.0849 15.4286C32.2167 16.5397 30.9569 17.7354 29.3476 18.9524C29.4217 19.1111 29.4641 19.3016 29.4641 19.4921C29.4641 19.5979 29.4535 19.7037 29.4217 19.8095C30.9251 20.5503 32.1109 21.2698 32.9261 21.9259C33.2966 22.2116 33.6037 22.5079 33.826 22.7936ZM17.0665 27.5556C18.4111 27.7249 19.7239 27.7989 21.0049 27.7884C21.0473 27.3439 21.0896 26.8783 21.1214 26.4127C21.1637 25.7354 21.1955 25.037 21.2061 24.3175C20.9202 24.254 20.6344 24.1905 20.3485 24.127C18.7499 24.8254 17.1512 25.4392 15.5949 25.9365C16.0819 26.5185 16.5689 27.0476 17.0665 27.5556ZM12.9587 8.46561C12.7152 8.48677 12.4717 8.50793 12.2388 8.5291C12.2176 8.77249 12.1964 9.02645 12.1858 9.291C12.1753 9.42857 12.1647 9.56614 12.1647 9.71428C12.4188 9.28042 12.6834 8.86772 12.9587 8.46561ZM17.9453 8.04233C18.4005 8.08465 18.8557 8.13756 19.311 8.21164C18.8452 6.48677 18.3158 5.00529 17.7653 3.84127C17.1512 4.33862 16.5372 4.91005 15.9231 5.54497C15.9972 5.67196 16.0396 5.80952 16.0396 5.95767C16.0396 6.06349 16.0184 6.16931 15.976 6.26455C16.6219 6.79365 17.2783 7.38624 17.9453 8.04233ZM13.9539 7.91534C15.002 7.87301 16.0713 7.89418 17.1724 7.96825C16.6642 7.48148 16.1666 7.03704 15.669 6.63492C15.542 6.71958 15.3832 6.77249 15.2244 6.77249C15.1079 6.77249 14.9914 6.75132 14.8961 6.70899C14.5679 7.08995 14.2609 7.49206 13.9539 7.91534ZM12.2811 8.03174C12.6199 8 12.9693 7.96825 13.3187 7.94709C13.7104 7.39682 14.1127 6.87831 14.515 6.38095C14.4409 6.25397 14.3986 6.10582 14.3986 5.95767C14.3986 5.87301 14.4091 5.77778 14.4409 5.7037C13.8798 5.30159 13.3293 4.95238 12.7999 4.66667C12.5776 5.65079 12.3976 6.78307 12.2811 8.03174ZM20.6556 28.2751C19.6604 28.2751 18.644 28.2116 17.617 28.1058C18.2205 28.6984 18.8134 29.2381 19.4063 29.7143C19.671 29.4392 19.9251 29.1534 20.1791 28.8466C20.3379 28.6667 20.4968 28.4762 20.6556 28.2751ZM31.9415 25.3545C31.0416 25.9894 29.9829 26.5291 28.7971 26.963C28.7547 26.9735 28.723 26.9947 28.6806 27.0053C28.9241 28.5608 28.8924 29.9259 28.543 30.9841C28.5112 31.1005 28.4689 31.2063 28.4265 31.3016C29.0194 30.8466 29.57 30.3598 30.0993 29.8307C31.518 28.4127 32.6932 26.7407 33.5401 24.8889C33.4025 24.963 33.2331 25.037 33.0531 25.1005C32.7355 25.2169 32.365 25.3016 31.9415 25.3545ZM33.7625 23.6931C33.4766 24.0317 33.159 24.3598 32.8096 24.6772C32.8414 24.6667 32.8731 24.6561 32.8943 24.6455C33.2649 24.5185 33.5084 24.3704 33.6566 24.2011C33.7836 24.0635 33.8154 23.8942 33.7625 23.6931ZM34.3024 22.963C34.2495 23.0582 34.186 23.1429 34.1224 23.2381C34.1224 23.2487 34.133 23.2593 34.133 23.2593C34.1436 23.291 34.1648 23.3228 34.1754 23.3545C34.2177 23.2169 34.2601 23.0899 34.3024 22.963ZM26.4997 10.1799C26.7114 10.2751 26.9232 10.3598 27.1349 10.455C27.0396 10.3598 26.9655 10.2434 26.9126 10.1164C26.7749 10.127 26.6373 10.1481 26.4997 10.1799ZM19.8298 8.28571C20.0203 8.31746 20.2109 8.34921 20.3909 8.38095C22.2648 8.71957 24.0223 9.21693 25.6421 9.83069C26.055 9.75661 26.4573 9.68254 26.8491 9.62963C26.902 9.21693 27.1984 8.86772 27.6007 8.7619C27.5266 7.01587 27.1878 5.52381 26.6161 4.34921C26.3197 3.74603 25.9597 3.22751 25.5362 2.81481C25.1022 3.06878 24.3822 3.06878 23.7047 2.78307C23.1012 2.5291 22.6883 2.10582 22.593 1.69312C21.1955 1.73545 19.671 2.40212 18.157 3.52381C18.7605 4.78307 19.3322 6.39153 19.8298 8.28571ZM9.71903 16.3598C9.5814 16.2222 9.40142 16.1376 9.18967 16.1376C8.98852 16.1376 8.79795 16.2222 8.66031 16.3598C8.52268 16.4974 8.43798 16.6772 8.43798 16.8889C8.43798 17.0899 8.52268 17.2804 8.66031 17.418C8.79795 17.5556 8.97793 17.6402 9.18967 17.6402C9.39083 17.6402 9.5814 17.5556 9.71903 17.418C9.85666 17.2804 9.94136 17.1005 9.94136 16.8889C9.93077 16.6772 9.84608 16.4974 9.71903 16.3598ZM7.99332 17.5979C7.86628 17.3862 7.79217 17.1429 7.79217 16.8783C7.79217 16.4974 7.95097 16.1376 8.20507 15.8942C8.26859 15.8307 8.35329 15.7672 8.4274 15.7143C8.258 15.3439 8.10978 14.9841 7.96156 14.6138C7.89804 14.455 7.83452 14.2963 7.77099 14.1481C5.36771 13.9048 3.40908 13.9259 2.2445 14.2645C2.27626 14.5397 2.26567 14.836 2.20215 15.1429C2.11745 15.5238 1.96923 15.8519 1.77866 16.0952C1.94806 16.2751 2.1598 16.4656 2.4033 16.6561C3.28204 17.3651 4.59485 18.1376 6.2782 18.9418C6.79697 18.5079 7.36868 18.0529 7.99332 17.5979ZM8.4274 18.0635C8.38505 18.0423 8.35329 18.0106 8.31094 17.9788C7.76041 18.381 7.24164 18.7831 6.76521 19.1852C7.15694 19.3651 7.55925 19.545 7.98274 19.7249C8.10978 19.164 8.258 18.6138 8.4274 18.0635ZM9.65551 18.2011C9.50729 18.254 9.34848 18.2857 9.18967 18.2857C9.0838 18.2857 8.97793 18.2751 8.88264 18.254C8.71325 18.8148 8.56503 19.3651 8.43798 19.9048C9.3273 20.2751 10.2801 20.6349 11.2965 21.0053C10.7036 20.0741 10.1637 19.1429 9.65551 18.2011ZM10.5342 16.4868C10.5766 16.6138 10.5978 16.7513 10.5978 16.8889C10.5978 17.2698 10.439 17.6296 10.1849 17.873C10.1531 17.9048 10.1213 17.9365 10.0896 17.9577C10.5872 18.8889 11.1377 19.8201 11.72 20.7513C11.8365 20.6455 11.9741 20.5608 12.1329 20.5079C11.9212 18.9101 11.7835 17.3228 11.6882 15.7778C11.3389 15.9788 10.9895 16.1905 10.6507 16.4021C10.6084 16.4339 10.566 16.455 10.5342 16.4868ZM9.78255 15.619C9.93077 15.6931 10.0684 15.7884 10.1849 15.8942C10.2272 15.9365 10.2696 15.9894 10.3119 16.0423L10.3966 15.9894C10.8095 15.7249 11.2436 15.4709 11.6671 15.2275C11.6565 15.0476 11.6459 14.8783 11.6459 14.6984C11.3071 14.6349 10.9683 14.582 10.6401 14.5291C10.5131 14.5079 10.3754 14.4868 10.2484 14.4656C10.0896 14.8466 9.93077 15.2275 9.78255 15.619ZM9.18967 15.4921C9.23202 15.4921 9.26378 15.4921 9.30613 15.4921C9.44376 15.1217 9.59198 14.7619 9.75079 14.3915C9.26378 14.3175 8.78736 14.254 8.32153 14.2011C8.35329 14.2751 8.38505 14.3492 8.41681 14.4233C8.56503 14.7831 8.72384 15.1429 8.88264 15.5132C8.97793 15.5026 9.0838 15.4921 9.18967 15.4921ZM7.94039 26.9524C7.8451 26.8571 7.70747 26.7936 7.54866 26.7936C7.40044 26.7936 7.26281 26.8571 7.15694 26.9524C7.06165 27.0476 6.99813 27.1852 6.99813 27.3439C6.99813 27.4921 7.06165 27.6296 7.15694 27.7355C7.25222 27.8307 7.38986 27.8942 7.54866 27.8942C7.69688 27.8942 7.83452 27.8307 7.94039 27.7355C8.03567 27.6402 8.0992 27.5026 8.0992 27.3439C8.0992 27.1958 8.03567 27.0582 7.94039 26.9524ZM18.644 34.8466C18.4852 34.7513 18.2629 34.6984 18.0194 34.6984C17.7653 34.6984 17.5429 34.7513 17.3947 34.8466C17.2888 34.9101 17.2359 34.9735 17.2359 35.0265C17.2359 35.0794 17.2994 35.1429 17.3947 35.2064C17.5535 35.3016 17.7759 35.3545 18.0194 35.3545C18.2735 35.3545 18.4958 35.3016 18.644 35.2064C18.7499 35.1429 18.8028 35.0794 18.8028 35.0265C18.8028 34.963 18.7499 34.8995 18.644 34.8466ZM19.3851 34.6984C19.3957 34.7302 19.4169 34.7619 19.4275 34.7936C21.5237 34.6243 23.5035 34.0741 25.3139 33.2169C24.8375 33.1852 24.3187 33.0899 23.7682 32.9101C22.8789 32.6138 21.9154 32.127 20.8885 31.4497C20.5285 32.8677 20.0627 33.9683 19.4804 34.6032C19.4486 34.6349 19.4169 34.6667 19.3851 34.6984ZM8.89323 3.55555C8.95675 3.36508 8.94617 3.19577 8.86147 3.10053C8.77677 2.99471 8.60738 2.96296 8.40622 2.98413C8.15213 3.01587 7.87686 3.14286 7.62277 3.3545C7.36868 3.56614 7.19929 3.8201 7.12518 4.06349C7.06165 4.25397 7.07224 4.42328 7.15694 4.51852C7.24164 4.62434 7.41103 4.65608 7.61219 4.63492C7.85569 4.60317 8.13096 4.48677 8.37446 4.27513L8.39564 4.25397C8.63914 4.05291 8.81912 3.79894 8.89323 3.55555ZM3.27145 26.2645C3.27145 26.0847 3.19734 25.8624 3.0703 25.6508C2.94325 25.4392 2.77385 25.2804 2.61505 25.1958C2.50918 25.1429 2.42448 25.1217 2.37154 25.1534C2.32919 25.1852 2.30802 25.2698 2.30802 25.3862C2.30802 25.5661 2.38213 25.7884 2.50918 26C2.63622 26.2116 2.80562 26.3704 2.96442 26.455C3.0703 26.5079 3.15499 26.5291 3.20793 26.4974C3.26086 26.4762 3.28204 26.3915 3.27145 26.2645ZM34.1224 10.7936C33.9636 10.6667 33.8048 10.6138 33.6778 10.6561C33.4343 10.7302 33.3496 11.0476 33.3707 11.3968C33.3813 11.5661 33.4131 11.7354 33.466 11.8942C33.519 12.0635 33.5931 12.2222 33.6778 12.3598C33.8683 12.6561 34.1118 12.8571 34.3553 12.7725C34.4824 12.7302 34.5777 12.5926 34.6306 12.4021C34.6941 12.1587 34.6835 11.8519 34.5777 11.5344C34.4824 11.2169 34.313 10.9524 34.1224 10.7936ZM33.2437 10.1376C33.2649 10.127 33.2755 10.1164 33.2966 10.1058C32.4708 8.46561 31.3909 6.96296 30.0993 5.68254C28.9347 4.51852 27.6007 3.51323 26.1291 2.73016C26.4891 3.13227 26.7961 3.60846 27.0608 4.13756C27.6643 5.36508 28.0136 6.93122 28.0877 8.75132C28.4371 8.83598 28.7124 9.08995 28.8288 9.41799C30.1417 9.3545 31.2851 9.43915 32.2062 9.7037C32.6085 9.8201 32.9473 9.96825 33.2437 10.1376ZM21.3014 10.582C21.0896 10.3704 20.7932 10.2434 20.4756 10.2434C20.1474 10.2434 19.8615 10.3704 19.6498 10.582C19.438 10.7936 19.311 11.0899 19.311 11.4074C19.311 11.7354 19.438 12.0212 19.6498 12.2328C19.8615 12.4444 20.158 12.5714 20.4756 12.5714C20.8038 12.5714 21.0896 12.4444 21.3014 12.2328C21.5131 12.0212 21.6402 11.7249 21.6402 11.4074C21.6402 11.0899 21.5131 10.7936 21.3014 10.582ZM19.6074 9.79894C19.6392 9.78836 19.6604 9.76719 19.6921 9.75661C19.6074 9.39682 19.5227 9.0582 19.438 8.71958C19.1204 8.66667 18.8028 8.62434 18.4852 8.59259C18.8557 8.97354 19.2369 9.37566 19.6074 9.79894ZM18.6969 11.873C18.6546 11.7249 18.6334 11.5661 18.6334 11.4074C18.6334 10.8995 18.8346 10.4444 19.1734 10.1164C19.1839 10.1058 19.1945 10.0952 19.2051 10.0847C18.7075 9.52381 18.2099 8.99471 17.7229 8.50794C16.3042 8.38095 14.9173 8.34921 13.5833 8.42328C13.0752 9.15344 12.5776 9.92592 12.1117 10.7407C12.08 11.873 12.08 13.0688 12.1117 14.2963C12.1858 14.3069 12.2599 14.328 12.3235 14.3386C12.4611 14.0741 12.7364 13.8942 13.0646 13.8942C13.2975 13.8942 13.5092 13.9894 13.6575 14.1376C15.3196 13.291 17.0136 12.5291 18.6969 11.873ZM20.3803 13.2381C19.9145 13.2169 19.491 13.0159 19.1839 12.709C19.0675 12.5926 18.9722 12.4762 18.8981 12.3386C17.2253 12.9841 15.542 13.7354 13.901 14.582C13.901 14.6032 13.9115 14.6349 13.9115 14.6561C15.9549 15.0899 18.1146 15.6508 20.2533 16.2963C20.3697 16.0952 20.5391 15.9471 20.7614 15.8624C20.6662 15.0582 20.5497 14.2434 20.4226 13.4392C20.4015 13.3651 20.3909 13.3016 20.3803 13.2381ZM21.5025 12.9206C21.312 13.0476 21.1002 13.1429 20.8567 13.1958L20.8779 13.3545C21.0049 14.1693 21.1214 14.9841 21.2167 15.7884C21.7249 15.8413 22.1166 16.2751 22.1166 16.7936C22.1166 16.8254 22.1166 16.8571 22.1166 16.8783C22.5401 17.0159 22.9636 17.164 23.387 17.3122C23.8211 17.4603 24.234 17.6085 24.6469 17.7672C23.7364 16.1376 22.6777 14.4974 21.5025 12.9206ZM22.286 11.164C22.2966 11.2487 22.3072 11.3228 22.3072 11.4074C22.3072 11.8519 22.1484 12.2645 21.8837 12.582C23.2071 14.3492 24.3822 16.2011 25.3774 18.0317C25.5998 18.1164 25.8221 18.2011 26.0338 18.2857C26.1291 18.0106 26.2138 17.7354 26.3091 17.4497C26.9973 15.2275 27.4102 13.1111 27.569 11.1852C26.9443 10.8783 26.2985 10.5926 25.6209 10.328C24.6575 10.5185 23.6623 10.7619 22.6248 11.0688C22.4977 11.1111 22.3919 11.1323 22.286 11.164ZM20.4756 9.5873C20.9838 9.5873 21.439 9.78836 21.7672 10.127C21.926 10.2857 22.0637 10.4868 22.1589 10.6984C22.2648 10.6667 22.3707 10.6349 22.466 10.6032C23.2388 10.381 24.0011 10.1799 24.7422 10.0212C23.3659 9.53439 21.8731 9.14286 20.3168 8.86772C20.2003 8.84656 20.0839 8.8254 19.978 8.80423C20.0415 9.06878 20.105 9.33333 20.1686 9.60846C20.2638 9.59788 20.3697 9.5873 20.4756 9.5873ZM14.4303 26.3915C14.2292 26.1905 13.9539 26.0635 13.6469 26.0635C13.3398 26.0635 13.0646 26.1905 12.8634 26.3915C12.6623 26.5926 12.5352 26.8677 12.5352 27.1746C12.5352 27.4815 12.6623 27.7566 12.8634 27.9577C13.0646 28.1587 13.3398 28.2857 13.6469 28.2857C13.9539 28.2857 14.2292 28.1587 14.4303 27.9577C14.6315 27.7566 14.7585 27.4815 14.7585 27.1746C14.7585 26.8677 14.6315 26.5926 14.4303 26.3915ZM28.416 24.7407C28.3207 24.6455 28.183 24.582 28.0242 24.582C27.876 24.582 27.7384 24.6455 27.6325 24.7407C27.5372 24.836 27.4737 24.9735 27.4737 25.1323C27.4737 25.2804 27.5372 25.418 27.6325 25.5238C27.7278 25.619 27.8654 25.6825 28.0242 25.6825C28.1724 25.6825 28.3101 25.619 28.416 25.5238C28.5112 25.4286 28.5748 25.291 28.5748 25.1323C28.5748 24.9735 28.5218 24.836 28.416 24.7407ZM26.8808 24.7619C26.9443 24.5714 27.0396 24.4021 27.1773 24.2645C27.2619 24.1799 27.3572 24.1058 27.4631 24.0529C27.2408 23.3651 26.9867 22.6667 26.6902 21.9471C26.5632 21.6402 26.4256 21.3228 26.2879 21.0159C25.9386 21.2275 25.5892 21.4392 25.2292 21.6508C24.9116 22.3492 24.5834 23.0265 24.234 23.6825C24.4458 23.873 24.5834 24.1481 24.6046 24.455C25.3986 24.582 26.1609 24.6878 26.8808 24.7619ZM28.0666 26.328C28.056 26.328 28.0454 26.328 28.0348 26.328C27.7066 26.328 27.3996 26.1905 27.1773 25.9788C26.9867 25.7884 26.8596 25.5344 26.8279 25.2593C26.0974 25.1746 25.3245 25.0688 24.5199 24.9418C24.3505 25.3439 23.9588 25.6296 23.4929 25.6296C23.3765 25.6296 23.26 25.6085 23.1541 25.5767C22.6777 26.3492 22.1801 27.0899 21.6719 27.7778C24.0435 27.7037 26.2456 27.3228 28.1407 26.6772C28.1089 26.5608 28.0877 26.4444 28.0666 26.328ZM29.1994 25.4392C29.1465 25.6402 29.03 25.8307 28.8924 25.9788C28.7971 26.0741 28.6806 26.1587 28.5536 26.2222C28.5748 26.3175 28.5959 26.4233 28.6171 26.5185L28.6489 26.5079C29.4747 26.2011 30.2264 25.8519 30.9145 25.4497C30.3746 25.4709 29.8029 25.4603 29.1994 25.4392ZM28.0348 23.9153C28.363 23.9153 28.67 24.0529 28.8924 24.2645C29.0724 24.4444 29.1994 24.6772 29.2312 24.9418C30.2052 24.9841 31.0522 24.963 31.7615 24.8783C32.4708 24.3704 33.0637 23.8095 33.5401 23.1958C33.339 22.9101 33.032 22.6032 32.6296 22.2857C31.8356 21.6508 30.6922 20.9524 29.2206 20.2222C28.9877 20.5291 28.6171 20.7407 28.2042 20.7407C27.8548 20.7407 27.5372 20.6032 27.3149 20.3704C27.1243 20.4974 26.9232 20.6243 26.7326 20.7513C26.8808 21.0899 27.029 21.4286 27.1667 21.7672C27.4631 22.4974 27.7278 23.2169 27.9607 23.9259C27.9607 23.9153 27.9925 23.9153 28.0348 23.9153ZM4.00197 21.7143C3.90668 21.619 3.76905 21.5556 3.61024 21.5556C3.45143 21.5556 3.32439 21.619 3.21852 21.7143C3.12323 21.8095 3.05971 21.9471 3.05971 22.1058C3.05971 22.2645 3.12323 22.3915 3.21852 22.4974C3.3138 22.5926 3.45143 22.6561 3.61024 22.6561C3.76905 22.6561 3.89609 22.5926 4.00197 22.4974C4.09725 22.4021 4.16077 22.2645 4.16077 22.1058C4.16077 21.9471 4.09725 21.8201 4.00197 21.7143ZM28.0348 31.8836C28.0348 31.873 28.0242 31.873 28.0136 31.8624C27.9289 31.7672 27.749 31.7355 27.5478 31.7566C27.2937 31.7884 27.0079 31.8942 26.7538 32.0847C26.6902 32.127 26.6267 32.1799 26.5738 32.2328C26.4044 32.3915 26.2879 32.5714 26.2456 32.7302C26.2138 32.8466 26.2138 32.9418 26.2668 33.0159C26.2668 33.0265 26.2773 33.0265 26.2879 33.037C26.3726 33.1323 26.5526 33.164 26.7538 33.1429C27.0079 33.1111 27.2937 33.0053 27.5478 32.8148C27.6113 32.7725 27.6748 32.7196 27.7278 32.6667C27.8972 32.5079 28.0136 32.328 28.056 32.1693C28.0877 32.0529 28.0877 31.9471 28.0348 31.8836ZM9.57081 3.16402C10.1108 3.16402 10.7036 3.28042 11.3283 3.48148C11.6988 3.59788 12.08 3.75661 12.4823 3.94709C12.7999 2.79365 13.1916 1.8836 13.6575 1.28042C13.6469 1.26984 13.6469 1.25926 13.6363 1.23809C12.1753 1.61905 10.7883 2.20106 9.51787 2.93122C9.53905 3.00529 9.56022 3.08995 9.57081 3.16402ZM2.62563 21.418C1.86336 20.5291 1.29165 19.5979 0.942277 18.6455C1.04815 20.7196 1.52457 22.6878 2.29743 24.5079C2.30802 24.5079 2.32919 24.5079 2.33978 24.4974C2.33978 24.455 2.35037 24.4127 2.35037 24.3704C2.4033 23.9365 2.55152 23.4815 2.79503 22.9947C2.78444 22.9841 2.77385 22.9735 2.76327 22.963C2.54094 22.7407 2.41389 22.4444 2.41389 22.1058C2.4033 21.8519 2.488 21.6085 2.62563 21.418ZM4.15019 21.0265C4.6372 20.4656 5.2089 19.8836 5.87589 19.3016C4.23488 18.5079 2.95384 17.7354 2.08569 17.037C1.82101 16.8254 1.58809 16.6138 1.40811 16.4127C1.28107 16.4762 1.15402 16.5185 1.02697 16.5079C1.04815 18.0741 1.7469 19.6296 2.9856 21.0688C3.16558 20.9524 3.38791 20.8889 3.62083 20.8889C3.80081 20.8995 3.98079 20.9418 4.15019 21.0265ZM4.65837 22.709C5.42064 23.3333 6.28879 23.9153 7.24164 24.455C7.32633 23.1217 7.52749 21.7037 7.86628 20.2011C7.33692 19.9788 6.82874 19.7566 6.35231 19.5344C5.64297 20.1481 5.03951 20.7513 4.53132 21.3333C4.7113 21.545 4.81718 21.8095 4.81718 22.1058C4.81718 22.328 4.76424 22.5291 4.65837 22.709ZM7.19929 26.1905C7.19929 26.1164 7.19929 26.0529 7.19929 25.9788C7.19929 25.6614 7.19929 25.3333 7.20987 24.9947C6.14057 24.4127 5.17714 23.7672 4.33017 23.0794C4.12901 23.2275 3.88551 23.3122 3.61024 23.3122C3.47261 23.3122 3.33497 23.291 3.21852 23.2487C3.01736 23.672 2.89031 24.0635 2.84797 24.4339C2.83738 24.4868 2.83738 24.5397 2.83738 24.582C2.86914 24.5926 2.9009 24.6138 2.93266 24.6243C3.18675 24.7619 3.44085 24.9947 3.63141 25.3122C3.82198 25.619 3.92786 25.9577 3.93844 26.2434C3.93844 26.2963 3.93844 26.3492 3.92786 26.4021C4.16077 26.5291 4.44663 26.6349 4.76424 26.7302C5.24066 26.8677 5.7912 26.9524 6.39466 26.9947C6.4476 26.7936 6.55347 26.6243 6.70169 26.4762C6.82874 26.3492 7.00872 26.2434 7.19929 26.1905ZM8.69208 26.9524C9.40142 26.8889 10.1531 26.7831 10.9471 26.6349C9.79314 26.2328 8.70266 25.7672 7.69688 25.2487C7.6863 25.4921 7.6863 25.7354 7.69688 25.9683C7.69688 26.0317 7.69688 26.0847 7.69688 26.1481C7.97215 26.1799 8.21565 26.3069 8.40622 26.4974C8.53327 26.6243 8.62855 26.7831 8.69208 26.9524ZM13.001 25.5238C12.8211 24.6984 12.6517 23.8413 12.5035 22.9418C11.8365 22.9206 11.2965 22.3704 11.2965 21.6931C11.2965 21.6402 11.2965 21.5767 11.3071 21.5238C10.2484 21.1429 9.25319 20.7619 8.33211 20.3915C7.99332 21.9153 7.79217 23.3651 7.71806 24.709C8.97793 25.3757 10.386 25.9683 11.9106 26.4444C11.9529 26.4339 12.0059 26.4233 12.0482 26.4127C12.1329 26.2328 12.2494 26.0741 12.387 25.9259C12.567 25.7566 12.7681 25.619 13.001 25.5238ZM14.6526 25.7249L14.7268 25.7037C14.1656 25.037 13.6363 24.3598 13.1175 23.6614C13.234 24.2645 13.3504 24.8571 13.4775 25.418C13.5304 25.418 13.5939 25.4074 13.6469 25.4074C14.0174 25.4074 14.3668 25.5238 14.6526 25.7249ZM15.4043 27.3016L15.4784 27.3122C15.7219 27.3545 15.9655 27.3968 16.209 27.4392C16.2301 27.4392 16.2513 27.4497 16.2725 27.4497C15.8702 27.0265 15.4679 26.582 15.0655 26.1058H15.0444C15.2667 26.4021 15.4043 26.7725 15.4043 27.1746C15.4149 27.2169 15.4149 27.2593 15.4043 27.3016ZM14.3562 28.7937C14.8115 30.2434 15.2985 31.4709 15.8066 32.4339C15.8384 32.4868 15.8596 32.5397 15.8913 32.5926C16.9501 31.9894 18.0194 31.1429 19.0675 30.0847C18.337 29.4815 17.5853 28.7936 16.8336 28.0212C16.6007 27.9894 16.3678 27.9577 16.1348 27.9259C15.8913 27.8836 15.6372 27.8413 15.3937 27.7989L15.309 27.7884C15.2244 28.0317 15.0761 28.254 14.8961 28.4339C14.7373 28.582 14.5574 28.709 14.3562 28.7937ZM7.91921 28.4974C8.08861 29.418 8.3427 30.2434 8.68149 30.9418C9.04145 31.6825 9.4967 32.2857 10.0366 32.7302C10.3543 32.582 10.8413 32.5926 11.2965 32.7831C11.7412 32.9735 12.0376 33.2804 12.1011 33.5767C12.2705 33.5979 12.4399 33.5979 12.6093 33.5979C13.5198 33.5873 14.4833 33.3122 15.4573 32.8148C15.4255 32.7619 15.4043 32.709 15.3726 32.6561C14.8538 31.672 14.3456 30.4127 13.8904 28.9312C13.8057 28.9418 13.7316 28.9524 13.6469 28.9524C13.1599 28.9524 12.7152 28.7513 12.3976 28.4339C12.08 28.1164 11.8788 27.672 11.8788 27.1852C11.8788 27.1111 11.8788 27.0265 11.8894 26.9524C10.7883 27.1958 9.72962 27.3545 8.7556 27.4497C8.73442 27.746 8.60738 28.0106 8.40622 28.2011C8.26859 28.328 8.0992 28.4339 7.91921 28.4974ZM3.63141 27.0053C4.29841 28.0317 5.06068 28.9841 5.92883 29.8413C6.81815 30.7302 7.81334 31.5238 8.88264 32.2011C8.64973 31.8836 8.43798 31.5344 8.24742 31.1534C7.87686 30.4021 7.61219 29.5238 7.4322 28.5397C7.14635 28.5079 6.89226 28.381 6.6911 28.1905C6.50053 28.0106 6.38408 27.7566 6.34173 27.4921C5.7065 27.4497 5.1242 27.3545 4.61602 27.2169C4.28782 27.1217 4.00197 27.0159 3.74787 26.8783C3.71611 26.9206 3.67376 26.963 3.63141 27.0053ZM16.7171 34.5714C16.3784 34.2434 16.029 33.7989 15.7008 33.2381C14.7585 33.7249 13.8163 34.0106 12.9164 34.0741C14.0915 34.4444 15.3302 34.6878 16.6007 34.7936C16.6324 34.709 16.6748 34.6455 16.7171 34.5714ZM19.0569 34.328C19.0781 34.3069 19.0993 34.2857 19.1098 34.2645C19.6604 33.6508 20.1156 32.5608 20.4544 31.1429C20.1262 30.9101 19.7874 30.6561 19.438 30.381C18.3582 31.4815 17.2359 32.3704 16.1243 33.0053C16.4419 33.5344 16.7701 33.9471 17.0877 34.254C17.3312 34.1164 17.6594 34.0423 18.0088 34.0423C18.3793 34.0423 18.7181 34.1376 18.9616 34.2751C19.004 34.2963 19.0251 34.3069 19.0569 34.328ZM27.9713 31.1323C28.0136 31.037 28.0454 30.9418 28.0772 30.836C28.3948 29.8624 28.4265 28.6138 28.2148 27.1746C26.2244 27.8307 23.9164 28.2222 21.439 28.2751C21.3331 29.2381 21.1849 30.127 21.0049 30.9312C22.0425 31.6402 23.0271 32.1376 23.9164 32.4339C24.5199 32.6349 25.081 32.7302 25.5786 32.7302C25.5892 32.6772 25.5998 32.6138 25.6104 32.5608C25.6845 32.2963 25.8644 32.0106 26.1185 31.7778C26.1926 31.7037 26.2668 31.6402 26.362 31.5767C26.7114 31.3122 27.1137 31.164 27.4737 31.1217C27.6537 31.0899 27.8125 31.1005 27.9713 31.1323ZM34.2389 13.4497C34.0483 13.9365 33.7625 14.4656 33.3813 15.0053C34.2389 16.0741 34.8318 17.1958 35.0964 18.3492C35.107 18.1587 35.107 17.9577 35.107 17.7566C35.107 16.254 34.9165 14.7936 34.5459 13.3968C34.44 13.4392 34.3342 13.4497 34.2389 13.4497ZM32.8943 10.5079C32.6614 10.381 32.3861 10.2751 32.0685 10.1799C31.2004 9.93651 30.1099 9.85185 28.8606 9.91534C28.7971 10.328 28.4795 10.6561 28.0666 10.7407C28.0666 10.7936 28.056 10.8571 28.056 10.9101C29.337 11.5661 30.4699 12.3069 31.4545 13.1005C32.0473 13.5873 32.5767 14.0952 33.0425 14.6243C33.3602 14.1693 33.5931 13.7354 33.7519 13.3333C33.5084 13.2063 33.286 12.9841 33.1166 12.709C33.0002 12.5185 32.9049 12.3175 32.8308 12.0952C32.7567 11.873 32.7143 11.6508 32.7038 11.4286C32.6932 11.0899 32.7461 10.7619 32.8943 10.5079ZM18.0088 0.179893C19.7239 0.179893 21.3861 0.423279 22.953 0.888888C23.3871 0.634919 24.1176 0.624338 24.7951 0.910052C25.4304 1.1746 25.8539 1.62963 25.9174 2.05291C27.6007 2.89947 29.1253 4.01058 30.4381 5.32275C31.7933 6.67725 32.9261 8.24339 33.7836 9.97884C34.0377 9.98942 34.3024 10.0952 34.5353 10.2857C34.8212 10.5185 35.0647 10.8889 35.2129 11.3228C35.3505 11.7672 35.3717 12.2011 35.2764 12.5608C35.2235 12.7831 35.1176 12.9735 34.98 13.1217C35.3823 14.6032 35.594 16.1481 35.594 17.7566C35.594 18.2751 35.5729 18.7936 35.5305 19.3016C35.9011 19.5132 36.0811 20.1587 35.9434 20.8042C35.8164 21.3968 35.4776 21.8095 35.1176 21.8413C34.3553 25.0476 32.7038 27.9153 30.4487 30.1799C29.8982 30.7302 29.3053 31.2487 28.6912 31.7143C28.7547 31.9048 28.7547 32.1164 28.6912 32.328C28.6171 32.5926 28.4371 32.8783 28.183 33.1217C28.1089 33.1958 28.0348 33.2593 27.9395 33.3228C27.5902 33.5873 27.1878 33.7355 26.8279 33.7778C26.4256 33.8201 26.0656 33.7355 25.8221 33.4921C23.8635 34.4656 21.6931 35.0899 19.4063 35.2698C19.3322 35.4603 19.1734 35.6296 18.9616 35.746C18.7075 35.8942 18.3687 35.9788 18.0088 35.9788C17.6382 35.9788 17.2994 35.8836 17.0559 35.746C16.8442 35.619 16.6854 35.4603 16.6113 35.2698C14.9067 35.1323 13.2657 34.7619 11.7412 34.1799C11.4236 34.3175 10.9577 34.2963 10.5131 34.1164C10.0366 33.9153 9.72962 33.5661 9.69786 33.2487C8.17331 32.4339 6.78639 31.3968 5.56886 30.1799C4.65837 29.2698 3.84316 28.254 3.14441 27.1534C2.9856 27.1534 2.8162 27.1005 2.6574 27.0159C2.4033 26.8783 2.14921 26.6455 1.95864 26.328C1.76807 26.0212 1.6622 25.6825 1.65162 25.3968C1.64103 25.1323 1.71514 24.8995 1.86336 24.7302C0.942277 22.6032 0.423506 20.2434 0.423506 17.7672C0.423506 17.2593 0.44468 16.7513 0.487029 16.254C0.14824 15.8836 1.98036e-05 15.164 0.14824 14.4339C0.285873 13.7672 0.645836 13.2698 1.03756 13.1111C1.85277 10.127 3.44085 7.46032 5.56886 5.33333C5.84413 5.0582 6.14057 4.78307 6.43701 4.51852C6.39466 4.31746 6.41584 4.09524 6.47936 3.87301C6.58523 3.52381 6.82874 3.15344 7.1887 2.85714C7.53808 2.56085 7.94039 2.38095 8.31094 2.33862C8.64973 2.2963 8.96734 2.35979 9.21085 2.55026C10.5766 1.75661 12.0694 1.14286 13.6363 0.74074C13.8268 0.370369 14.3668 0.074073 15.002 0.0317449C15.4361 0.0105809 15.8172 0.116401 16.0607 0.296295C16.7066 0.222221 17.3524 0.179893 18.0088 0.179893ZM5.69591 9.75661C5.68532 9.7037 5.68532 9.64021 5.68532 9.5873C5.68532 9.16402 5.95 8.79365 6.32055 8.6455C6.19351 7.39682 6.25703 6.28571 6.55347 5.39682C6.59582 5.25926 6.64875 5.13227 6.70169 5.00529C6.6911 4.99471 6.68052 4.98413 6.66993 4.97354C6.41584 5.19577 6.16175 5.43915 5.91824 5.67196C3.88551 7.71428 2.36096 10.2645 1.55633 13.1111C2.44565 11.7566 3.87492 10.6243 5.69591 9.75661ZM6.64875 10.6032C6.34173 10.5926 6.06646 10.4339 5.88648 10.2116C4.1396 11.0476 2.77385 12.1376 1.93747 13.4286C2.01158 13.5344 2.0751 13.6508 2.12804 13.7884C3.32439 13.4497 5.23008 13.418 7.56984 13.6402C7.1887 12.582 6.87109 11.5661 6.64875 10.6032ZM7.70747 9.48148C7.70747 9.51323 7.71806 9.55555 7.71806 9.5873C7.71806 9.98942 7.48514 10.3386 7.13576 10.5079C7.36868 11.5132 7.69688 12.582 8.12037 13.6931C8.70266 13.7566 9.31672 13.8413 9.95195 13.9259C10.4601 12.7619 11.0213 11.6508 11.6247 10.6032C11.6459 10.1481 11.6671 9.69312 11.6882 9.25926C11.6988 9.03704 11.72 8.81481 11.7412 8.59259C10.2907 8.77248 8.93558 9.06878 7.70747 9.48148ZM6.80756 8.58201C7.11459 8.61376 7.37927 8.78307 7.54866 9.02645C8.8403 8.59259 10.2696 8.28571 11.7941 8.09524C11.9212 6.74074 12.1117 5.50264 12.3658 4.44444C11.9529 4.24338 11.5612 4.08465 11.1906 3.95767C10.5978 3.76719 10.0472 3.66137 9.56022 3.66137C9.54964 3.69312 9.53905 3.72487 9.53905 3.75661C9.43318 4.10582 9.18967 4.46561 8.85088 4.75132L8.82971 4.77249C8.48033 5.06878 8.07802 5.24868 7.70747 5.291C7.50631 5.31217 7.32633 5.30159 7.15694 5.25926C7.11459 5.3545 7.08283 5.44973 7.05107 5.55555C6.74404 6.38095 6.68052 7.40741 6.80756 8.58201Z" fill="url(#paint0_linear_7_199)"></path><mask id="mask0_7_199" style="mask-type:luminance" maskUnits="userSpaceOnUse" x="0" y="0" width="36" height="36"><path d="M25.8115 18.8889C25.8327 18.8466 25.8433 18.8042 25.8644 18.7513L25.7162 18.6878C25.748 18.7619 25.7797 18.8254 25.8115 18.8889ZM25.875 20.1164C25.7692 20.3704 25.6739 20.6243 25.568 20.8783C25.748 20.7725 25.9174 20.6667 26.0868 20.5608C26.0127 20.4233 25.9491 20.2751 25.875 20.1164ZM26.3197 18.9418C26.2562 19.1217 26.1821 19.3122 26.1185 19.4921C26.2562 19.7672 26.3832 20.0317 26.5103 20.3069C26.6797 20.2011 26.8596 20.0847 27.029 19.9788C26.9655 19.8307 26.9337 19.6614 26.9337 19.4815C26.9337 19.3862 26.9443 19.291 26.9655 19.2063C26.7432 19.1217 26.5314 19.0265 26.3197 18.9418ZM20.5709 30.6243C20.6873 30.0529 20.7932 29.4392 20.8779 28.7831C20.772 28.9206 20.6556 29.0476 20.5497 29.1746C20.2956 29.4709 20.0415 29.7566 19.7874 30.0317C20.0521 30.2434 20.3168 30.4444 20.5709 30.6243ZM13.1069 22.8148C13.7739 23.746 14.4832 24.6561 15.2349 25.545C16.643 25.1005 18.0829 24.5608 19.5333 23.9471C17.6065 23.4921 15.6055 22.9418 13.6363 22.3175C13.5092 22.5185 13.3293 22.6984 13.1069 22.8148ZM12.1329 14.7936C12.1329 14.8466 12.1329 14.8995 12.1435 14.9524L12.2494 14.8889C12.2388 14.8571 12.2388 14.836 12.2388 14.8042L12.1329 14.7936ZM17.5429 3.38624C17.5218 3.34391 17.5006 3.30159 17.4794 3.26984C17.003 2.37037 16.516 1.7037 16.0396 1.31217C15.7749 1.54497 15.3514 1.71428 14.8856 1.74603C14.5574 1.76719 14.2609 1.71428 14.028 1.59788C13.5833 2.16931 13.2128 3.0582 12.9164 4.17989C13.4986 4.48677 14.1021 4.86772 14.7268 5.30159C14.8644 5.19577 15.0338 5.13227 15.2138 5.13227C15.3302 5.13227 15.4467 5.15344 15.5526 5.20635C16.209 4.5291 16.8759 3.91534 17.5429 3.38624ZM21.2061 23.1958C21.2061 21.4709 21.1214 19.6508 20.952 17.7884C20.4756 17.7037 20.105 17.291 20.105 16.7936C20.105 16.7831 20.105 16.7725 20.105 16.7619C17.9664 16.1164 15.8278 15.5661 13.7951 15.1323C13.6575 15.3862 13.3822 15.5661 13.0646 15.5661C12.8422 15.5661 12.6305 15.4709 12.4823 15.3333C12.3764 15.3968 12.2705 15.4497 12.1647 15.5132C12.2494 17.1217 12.3976 18.7831 12.6199 20.455C13.2763 20.4974 13.7951 21.037 13.7951 21.7037C13.7951 21.7566 13.7951 21.7989 13.7845 21.8519C15.9655 22.5503 18.1676 23.1429 20.285 23.619C20.592 23.4815 20.8991 23.3439 21.2061 23.1958ZM21.1955 23.8201V23.746L21.0791 23.7989L21.1955 23.8201ZM16.3042 0.89947L16.3254 0.910052C16.8654 1.34391 17.4053 2.06349 17.9135 3.03704C17.9241 3.04762 17.9347 3.06878 17.9347 3.07936C19.4169 1.98942 20.8991 1.33333 22.3072 1.21693C20.9308 0.857142 19.491 0.677248 18.0088 0.677248C17.4371 0.677248 16.8759 0.708994 16.3148 0.761904C16.3148 0.772486 16.3148 0.79365 16.3148 0.804232C16.3148 0.835978 16.3148 0.867724 16.3042 0.89947ZM11.6247 14.2011C11.593 13.3333 11.593 12.4762 11.6035 11.6614C11.2012 12.4127 10.8095 13.1958 10.4601 14.0106C10.5448 14.0212 10.6401 14.0423 10.7248 14.0529C11.0107 14.0952 11.3177 14.1481 11.6247 14.2011ZM21.6825 24.4233C21.6719 25.1217 21.6402 25.7884 21.5978 26.4444C21.5872 26.6667 21.5661 26.8889 21.5449 27.1111C21.9472 26.5397 22.3495 25.9471 22.7306 25.3228C22.5295 25.1323 22.3919 24.8571 22.3813 24.5608C22.1589 24.5185 21.9154 24.4656 21.6825 24.4233ZM21.6931 23.5132C21.6931 23.6508 21.6931 23.7884 21.6931 23.9259C21.9578 23.9788 22.2225 24.0317 22.4766 24.0847C22.6459 23.6931 23.0377 23.418 23.4929 23.418C23.5988 23.418 23.7047 23.4286 23.7999 23.4603C24.0435 23.0053 24.2658 22.5503 24.4987 22.0741C23.5776 22.582 22.6459 23.0582 21.6931 23.5132ZM21.439 17.7566C21.5978 19.545 21.6825 21.3016 21.6931 22.963C22.7624 22.4444 23.8211 21.8942 24.8481 21.3016C25.1128 20.7196 25.3563 20.127 25.5892 19.5132C25.4092 19.1534 25.2186 18.7831 25.0281 18.4233C24.4564 18.2011 23.8635 17.9894 23.2494 17.7778C22.8259 17.6296 22.4024 17.4921 21.979 17.3439C21.8413 17.5344 21.6613 17.6825 21.439 17.7566ZM32.7567 15.0265C32.2909 14.4868 31.7509 13.9788 31.1474 13.4815C30.2475 12.7407 29.1994 12.0529 28.0242 11.4392C27.8548 13.3439 27.4419 15.418 26.7644 17.6085C26.6691 17.9048 26.5738 18.1905 26.4785 18.4868C26.7008 18.582 26.9232 18.6667 27.1455 18.7619C27.3784 18.4339 27.7595 18.2222 28.183 18.2222C28.5112 18.2222 28.8183 18.3492 29.0406 18.5608C30.6604 17.3228 31.9097 16.127 32.7567 15.0265ZM33.826 22.7936C34.1118 22.3598 34.3342 21.9048 34.493 21.4286C34.3448 21.1323 34.3024 20.709 34.3977 20.2857C34.4612 19.9683 34.5989 19.6931 34.7682 19.5132C34.7047 18.1164 34.1118 16.7302 33.0849 15.4286C32.2167 16.5397 30.9569 17.7354 29.3476 18.9524C29.4217 19.1111 29.4641 19.3016 29.4641 19.4921C29.4641 19.5979 29.4535 19.7037 29.4217 19.8095C30.9251 20.5503 32.1109 21.2698 32.9261 21.9259C33.2966 22.2116 33.6037 22.5079 33.826 22.7936ZM17.0665 27.5556C18.4111 27.7249 19.7239 27.7989 21.0049 27.7884C21.0473 27.3439 21.0896 26.8783 21.1214 26.4127C21.1637 25.7354 21.1955 25.037 21.2061 24.3175C20.9202 24.254 20.6344 24.1905 20.3485 24.127C18.7499 24.8254 17.1512 25.4392 15.5949 25.9365C16.0819 26.5185 16.5689 27.0476 17.0665 27.5556ZM12.9587 8.46561C12.7152 8.48677 12.4717 8.50793 12.2388 8.5291C12.2176 8.77249 12.1964 9.02645 12.1858 9.291C12.1753 9.42857 12.1647 9.56614 12.1647 9.71428C12.4188 9.28042 12.6834 8.86772 12.9587 8.46561ZM17.9453 8.04233C18.4005 8.08465 18.8557 8.13756 19.311 8.21164C18.8452 6.48677 18.3158 5.00529 17.7653 3.84127C17.1512 4.33862 16.5372 4.91005 15.9231 5.54497C15.9972 5.67196 16.0396 5.80952 16.0396 5.95767C16.0396 6.06349 16.0184 6.16931 15.976 6.26455C16.6219 6.79365 17.2783 7.38624 17.9453 8.04233ZM13.9539 7.91534C15.002 7.87301 16.0713 7.89418 17.1724 7.96825C16.6642 7.48148 16.1666 7.03704 15.669 6.63492C15.542 6.71958 15.3832 6.77249 15.2244 6.77249C15.1079 6.77249 14.9914 6.75132 14.8961 6.70899C14.5679 7.08995 14.2609 7.49206 13.9539 7.91534ZM12.2811 8.03174C12.6199 8 12.9693 7.96825 13.3187 7.94709C13.7104 7.39682 14.1127 6.87831 14.515 6.38095C14.4409 6.25397 14.3986 6.10582 14.3986 5.95767C14.3986 5.87301 14.4091 5.77778 14.4409 5.7037C13.8798 5.30159 13.3293 4.95238 12.7999 4.66667C12.5776 5.65079 12.3976 6.78307 12.2811 8.03174ZM20.6556 28.2751C19.6604 28.2751 18.644 28.2116 17.617 28.1058C18.2205 28.6984 18.8134 29.2381 19.4063 29.7143C19.671 29.4392 19.9251 29.1534 20.1791 28.8466C20.3379 28.6667 20.4968 28.4762 20.6556 28.2751ZM31.9415 25.3545C31.0416 25.9894 29.9829 26.5291 28.7971 26.963C28.7547 26.9735 28.723 26.9947 28.6806 27.0053C28.9241 28.5608 28.8924 29.9259 28.543 30.9841C28.5112 31.1005 28.4689 31.2063 28.4265 31.3016C29.0194 30.8466 29.57 30.3598 30.0993 29.8307C31.518 28.4127 32.6932 26.7407 33.5401 24.8889C33.4025 24.963 33.2331 25.037 33.0531 25.1005C32.7355 25.2169 32.365 25.3016 31.9415 25.3545ZM33.7625 23.6931C33.4766 24.0317 33.159 24.3598 32.8096 24.6772C32.8414 24.6667 32.8731 24.6561 32.8943 24.6455C33.2649 24.5185 33.5084 24.3704 33.6566 24.2011C33.7836 24.0635 33.8154 23.8942 33.7625 23.6931ZM34.3024 22.963C34.2495 23.0582 34.186 23.1429 34.1224 23.2381C34.1224 23.2487 34.133 23.2593 34.133 23.2593C34.1436 23.291 34.1648 23.3228 34.1754 23.3545C34.2177 23.2169 34.2601 23.0899 34.3024 22.963ZM26.4997 10.1799C26.7114 10.2751 26.9232 10.3598 27.1349 10.455C27.0396 10.3598 26.9655 10.2434 26.9126 10.1164C26.7749 10.127 26.6373 10.1481 26.4997 10.1799ZM19.8298 8.28571C20.0203 8.31746 20.2109 8.34921 20.3909 8.38095C22.2648 8.71957 24.0223 9.21693 25.6421 9.83069C26.055 9.75661 26.4573 9.68254 26.8491 9.62963C26.902 9.21693 27.1984 8.86772 27.6007 8.7619C27.5266 7.01587 27.1878 5.52381 26.6161 4.34921C26.3197 3.74603 25.9597 3.22751 25.5362 2.81481C25.1022 3.06878 24.3822 3.06878 23.7047 2.78307C23.1012 2.5291 22.6883 2.10582 22.593 1.69312C21.1955 1.73545 19.671 2.40212 18.157 3.52381C18.7605 4.78307 19.3322 6.39153 19.8298 8.28571ZM9.71903 16.3598C9.5814 16.2222 9.40142 16.1376 9.18967 16.1376C8.98852 16.1376 8.79795 16.2222 8.66031 16.3598C8.52268 16.4974 8.43798 16.6772 8.43798 16.8889C8.43798 17.0899 8.52268 17.2804 8.66031 17.418C8.79795 17.5556 8.97793 17.6402 9.18967 17.6402C9.39083 17.6402 9.5814 17.5556 9.71903 17.418C9.85666 17.2804 9.94136 17.1005 9.94136 16.8889C9.93077 16.6772 9.84608 16.4974 9.71903 16.3598ZM7.99332 17.5979C7.86628 17.3862 7.79217 17.1429 7.79217 16.8783C7.79217 16.4974 7.95097 16.1376 8.20507 15.8942C8.26859 15.8307 8.35329 15.7672 8.4274 15.7143C8.258 15.3439 8.10978 14.9841 7.96156 14.6138C7.89804 14.455 7.83452 14.2963 7.77099 14.1481C5.36771 13.9048 3.40908 13.9259 2.2445 14.2645C2.27626 14.5397 2.26567 14.836 2.20215 15.1429C2.11745 15.5238 1.96923 15.8519 1.77866 16.0952C1.94806 16.2751 2.1598 16.4656 2.4033 16.6561C3.28204 17.3651 4.59485 18.1376 6.2782 18.9418C6.79697 18.5079 7.36868 18.0529 7.99332 17.5979ZM8.4274 18.0635C8.38505 18.0423 8.35329 18.0106 8.31094 17.9788C7.76041 18.381 7.24164 18.7831 6.76521 19.1852C7.15694 19.3651 7.55925 19.545 7.98274 19.7249C8.10978 19.164 8.258 18.6138 8.4274 18.0635ZM9.65551 18.2011C9.50729 18.254 9.34848 18.2857 9.18967 18.2857C9.0838 18.2857 8.97793 18.2751 8.88264 18.254C8.71325 18.8148 8.56503 19.3651 8.43798 19.9048C9.3273 20.2751 10.2801 20.6349 11.2965 21.0053C10.7036 20.0741 10.1637 19.1429 9.65551 18.2011ZM10.5342 16.4868C10.5766 16.6138 10.5978 16.7513 10.5978 16.8889C10.5978 17.2698 10.439 17.6296 10.1849 17.873C10.1531 17.9048 10.1213 17.9365 10.0896 17.9577C10.5872 18.8889 11.1377 19.8201 11.72 20.7513C11.8365 20.6455 11.9741 20.5608 12.1329 20.5079C11.9212 18.9101 11.7835 17.3228 11.6882 15.7778C11.3389 15.9788 10.9895 16.1905 10.6507 16.4021C10.6084 16.4339 10.566 16.455 10.5342 16.4868ZM9.78255 15.619C9.93077 15.6931 10.0684 15.7884 10.1849 15.8942C10.2272 15.9365 10.2696 15.9894 10.3119 16.0423L10.3966 15.9894C10.8095 15.7249 11.2436 15.4709 11.6671 15.2275C11.6565 15.0476 11.6459 14.8783 11.6459 14.6984C11.3071 14.6349 10.9683 14.582 10.6401 14.5291C10.5131 14.5079 10.3754 14.4868 10.2484 14.4656C10.0896 14.8466 9.93077 15.2275 9.78255 15.619ZM9.18967 15.4921C9.23202 15.4921 9.26378 15.4921 9.30613 15.4921C9.44376 15.1217 9.59198 14.7619 9.75079 14.3915C9.26378 14.3175 8.78736 14.254 8.32153 14.2011C8.35329 14.2751 8.38505 14.3492 8.41681 14.4233C8.56503 14.7831 8.72384 15.1429 8.88264 15.5132C8.97793 15.5026 9.0838 15.4921 9.18967 15.4921ZM7.94039 26.9524C7.8451 26.8571 7.70747 26.7936 7.54866 26.7936C7.40044 26.7936 7.26281 26.8571 7.15694 26.9524C7.06165 27.0476 6.99813 27.1852 6.99813 27.3439C6.99813 27.4921 7.06165 27.6296 7.15694 27.7355C7.25222 27.8307 7.38986 27.8942 7.54866 27.8942C7.69688 27.8942 7.83452 27.8307 7.94039 27.7355C8.03567 27.6402 8.0992 27.5026 8.0992 27.3439C8.0992 27.1958 8.03567 27.0582 7.94039 26.9524ZM18.644 34.8466C18.4852 34.7513 18.2629 34.6984 18.0194 34.6984C17.7653 34.6984 17.5429 34.7513 17.3947 34.8466C17.2888 34.9101 17.2359 34.9735 17.2359 35.0265C17.2359 35.0794 17.2994 35.1429 17.3947 35.2064C17.5535 35.3016 17.7759 35.3545 18.0194 35.3545C18.2735 35.3545 18.4958 35.3016 18.644 35.2064C18.7499 35.1429 18.8028 35.0794 18.8028 35.0265C18.8028 34.963 18.7499 34.8995 18.644 34.8466ZM19.3851 34.6984C19.3957 34.7302 19.4169 34.7619 19.4275 34.7936C21.5237 34.6243 23.5035 34.0741 25.3139 33.2169C24.8375 33.1852 24.3187 33.0899 23.7682 32.9101C22.8789 32.6138 21.9154 32.127 20.8885 31.4497C20.5285 32.8677 20.0627 33.9683 19.4804 34.6032C19.4486 34.6349 19.4169 34.6667 19.3851 34.6984ZM8.89323 3.55555C8.95675 3.36508 8.94617 3.19577 8.86147 3.10053C8.77677 2.99471 8.60738 2.96296 8.40622 2.98413C8.15213 3.01587 7.87686 3.14286 7.62277 3.3545C7.36868 3.56614 7.19929 3.8201 7.12518 4.06349C7.06165 4.25397 7.07224 4.42328 7.15694 4.51852C7.24164 4.62434 7.41103 4.65608 7.61219 4.63492C7.85569 4.60317 8.13096 4.48677 8.37446 4.27513L8.39564 4.25397C8.63914 4.05291 8.81912 3.79894 8.89323 3.55555ZM3.27145 26.2645C3.27145 26.0847 3.19734 25.8624 3.0703 25.6508C2.94325 25.4392 2.77385 25.2804 2.61505 25.1958C2.50918 25.1429 2.42448 25.1217 2.37154 25.1534C2.32919 25.1852 2.30802 25.2698 2.30802 25.3862C2.30802 25.5661 2.38213 25.7884 2.50918 26C2.63622 26.2116 2.80562 26.3704 2.96442 26.455C3.0703 26.5079 3.15499 26.5291 3.20793 26.4974C3.26086 26.4762 3.28204 26.3915 3.27145 26.2645ZM34.1224 10.7936C33.9636 10.6667 33.8048 10.6138 33.6778 10.6561C33.4343 10.7302 33.3496 11.0476 33.3707 11.3968C33.3813 11.5661 33.4131 11.7354 33.466 11.8942C33.519 12.0635 33.5931 12.2222 33.6778 12.3598C33.8683 12.6561 34.1118 12.8571 34.3553 12.7725C34.4824 12.7302 34.5777 12.5926 34.6306 12.4021C34.6941 12.1587 34.6835 11.8519 34.5777 11.5344C34.4824 11.2169 34.313 10.9524 34.1224 10.7936ZM33.2437 10.1376C33.2649 10.127 33.2755 10.1164 33.2966 10.1058C32.4708 8.46561 31.3909 6.96296 30.0993 5.68254C28.9347 4.51852 27.6007 3.51323 26.1291 2.73016C26.4891 3.13227 26.7961 3.60846 27.0608 4.13756C27.6643 5.36508 28.0136 6.93122 28.0877 8.75132C28.4371 8.83598 28.7124 9.08995 28.8288 9.41799C30.1417 9.3545 31.2851 9.43915 32.2062 9.7037C32.6085 9.8201 32.9473 9.96825 33.2437 10.1376ZM21.3014 10.582C21.0896 10.3704 20.7932 10.2434 20.4756 10.2434C20.1474 10.2434 19.8615 10.3704 19.6498 10.582C19.438 10.7936 19.311 11.0899 19.311 11.4074C19.311 11.7354 19.438 12.0212 19.6498 12.2328C19.8615 12.4444 20.158 12.5714 20.4756 12.5714C20.8038 12.5714 21.0896 12.4444 21.3014 12.2328C21.5131 12.0212 21.6402 11.7249 21.6402 11.4074C21.6402 11.0899 21.5131 10.7936 21.3014 10.582ZM19.6074 9.79894C19.6392 9.78836 19.6604 9.76719 19.6921 9.75661C19.6074 9.39682 19.5227 9.0582 19.438 8.71958C19.1204 8.66667 18.8028 8.62434 18.4852 8.59259C18.8557 8.97354 19.2369 9.37566 19.6074 9.79894ZM18.6969 11.873C18.6546 11.7249 18.6334 11.5661 18.6334 11.4074C18.6334 10.8995 18.8346 10.4444 19.1734 10.1164C19.1839 10.1058 19.1945 10.0952 19.2051 10.0847C18.7075 9.52381 18.2099 8.99471 17.7229 8.50794C16.3042 8.38095 14.9173 8.34921 13.5833 8.42328C13.0752 9.15344 12.5776 9.92592 12.1117 10.7407C12.08 11.873 12.08 13.0688 12.1117 14.2963C12.1858 14.3069 12.2599 14.328 12.3235 14.3386C12.4611 14.0741 12.7364 13.8942 13.0646 13.8942C13.2975 13.8942 13.5092 13.9894 13.6575 14.1376C15.3196 13.291 17.0136 12.5291 18.6969 11.873ZM20.3803 13.2381C19.9145 13.2169 19.491 13.0159 19.1839 12.709C19.0675 12.5926 18.9722 12.4762 18.8981 12.3386C17.2253 12.9841 15.542 13.7354 13.901 14.582C13.901 14.6032 13.9115 14.6349 13.9115 14.6561C15.9549 15.0899 18.1146 15.6508 20.2533 16.2963C20.3697 16.0952 20.5391 15.9471 20.7614 15.8624C20.6662 15.0582 20.5497 14.2434 20.4226 13.4392C20.4015 13.3651 20.3909 13.3016 20.3803 13.2381ZM21.5025 12.9206C21.312 13.0476 21.1002 13.1429 20.8567 13.1958L20.8779 13.3545C21.0049 14.1693 21.1214 14.9841 21.2167 15.7884C21.7249 15.8413 22.1166 16.2751 22.1166 16.7936C22.1166 16.8254 22.1166 16.8571 22.1166 16.8783C22.5401 17.0159 22.9636 17.164 23.387 17.3122C23.8211 17.4603 24.234 17.6085 24.6469 17.7672C23.7364 16.1376 22.6777 14.4974 21.5025 12.9206ZM22.286 11.164C22.2966 11.2487 22.3072 11.3228 22.3072 11.4074C22.3072 11.8519 22.1484 12.2645 21.8837 12.582C23.2071 14.3492 24.3822 16.2011 25.3774 18.0317C25.5998 18.1164 25.8221 18.2011 26.0338 18.2857C26.1291 18.0106 26.2138 17.7354 26.3091 17.4497C26.9973 15.2275 27.4102 13.1111 27.569 11.1852C26.9443 10.8783 26.2985 10.5926 25.6209 10.328C24.6575 10.5185 23.6623 10.7619 22.6248 11.0688C22.4977 11.1111 22.3919 11.1323 22.286 11.164ZM20.4756 9.5873C20.9838 9.5873 21.439 9.78836 21.7672 10.127C21.926 10.2857 22.0637 10.4868 22.1589 10.6984C22.2648 10.6667 22.3707 10.6349 22.466 10.6032C23.2388 10.381 24.0011 10.1799 24.7422 10.0212C23.3659 9.53439 21.8731 9.14286 20.3168 8.86772C20.2003 8.84656 20.0839 8.8254 19.978 8.80423C20.0415 9.06878 20.105 9.33333 20.1686 9.60846C20.2638 9.59788 20.3697 9.5873 20.4756 9.5873ZM14.4303 26.3915C14.2292 26.1905 13.9539 26.0635 13.6469 26.0635C13.3398 26.0635 13.0646 26.1905 12.8634 26.3915C12.6623 26.5926 12.5352 26.8677 12.5352 27.1746C12.5352 27.4815 12.6623 27.7566 12.8634 27.9577C13.0646 28.1587 13.3398 28.2857 13.6469 28.2857C13.9539 28.2857 14.2292 28.1587 14.4303 27.9577C14.6315 27.7566 14.7585 27.4815 14.7585 27.1746C14.7585 26.8677 14.6315 26.5926 14.4303 26.3915ZM28.416 24.7407C28.3207 24.6455 28.183 24.582 28.0242 24.582C27.876 24.582 27.7384 24.6455 27.6325 24.7407C27.5372 24.836 27.4737 24.9735 27.4737 25.1323C27.4737 25.2804 27.5372 25.418 27.6325 25.5238C27.7278 25.619 27.8654 25.6825 28.0242 25.6825C28.1724 25.6825 28.3101 25.619 28.416 25.5238C28.5112 25.4286 28.5748 25.291 28.5748 25.1323C28.5748 24.9735 28.5218 24.836 28.416 24.7407ZM26.8808 24.7619C26.9443 24.5714 27.0396 24.4021 27.1773 24.2645C27.2619 24.1799 27.3572 24.1058 27.4631 24.0529C27.2408 23.3651 26.9867 22.6667 26.6902 21.9471C26.5632 21.6402 26.4256 21.3228 26.2879 21.0159C25.9386 21.2275 25.5892 21.4392 25.2292 21.6508C24.9116 22.3492 24.5834 23.0265 24.234 23.6825C24.4458 23.873 24.5834 24.1481 24.6046 24.455C25.3986 24.582 26.1609 24.6878 26.8808 24.7619ZM28.0666 26.328C28.056 26.328 28.0454 26.328 28.0348 26.328C27.7066 26.328 27.3996 26.1905 27.1773 25.9788C26.9867 25.7884 26.8596 25.5344 26.8279 25.2593C26.0974 25.1746 25.3245 25.0688 24.5199 24.9418C24.3505 25.3439 23.9588 25.6296 23.4929 25.6296C23.3765 25.6296 23.26 25.6085 23.1541 25.5767C22.6777 26.3492 22.1801 27.0899 21.6719 27.7778C24.0435 27.7037 26.2456 27.3228 28.1407 26.6772C28.1089 26.5608 28.0877 26.4444 28.0666 26.328ZM29.1994 25.4392C29.1465 25.6402 29.03 25.8307 28.8924 25.9788C28.7971 26.0741 28.6806 26.1587 28.5536 26.2222C28.5748 26.3175 28.5959 26.4233 28.6171 26.5185L28.6489 26.5079C29.4747 26.2011 30.2264 25.8519 30.9145 25.4497C30.3746 25.4709 29.8029 25.4603 29.1994 25.4392ZM28.0348 23.9153C28.363 23.9153 28.67 24.0529 28.8924 24.2645C29.0724 24.4444 29.1994 24.6772 29.2312 24.9418C30.2052 24.9841 31.0522 24.963 31.7615 24.8783C32.4708 24.3704 33.0637 23.8095 33.5401 23.1958C33.339 22.9101 33.032 22.6032 32.6296 22.2857C31.8356 21.6508 30.6922 20.9524 29.2206 20.2222C28.9877 20.5291 28.6171 20.7407 28.2042 20.7407C27.8548 20.7407 27.5372 20.6032 27.3149 20.3704C27.1243 20.4974 26.9232 20.6243 26.7326 20.7513C26.8808 21.0899 27.029 21.4286 27.1667 21.7672C27.4631 22.4974 27.7278 23.2169 27.9607 23.9259C27.9607 23.9153 27.9925 23.9153 28.0348 23.9153ZM4.00197 21.7143C3.90668 21.619 3.76905 21.5556 3.61024 21.5556C3.45143 21.5556 3.32439 21.619 3.21852 21.7143C3.12323 21.8095 3.05971 21.9471 3.05971 22.1058C3.05971 22.2645 3.12323 22.3915 3.21852 22.4974C3.3138 22.5926 3.45143 22.6561 3.61024 22.6561C3.76905 22.6561 3.89609 22.5926 4.00197 22.4974C4.09725 22.4021 4.16077 22.2645 4.16077 22.1058C4.16077 21.9471 4.09725 21.8201 4.00197 21.7143ZM28.0348 31.8836C28.0348 31.873 28.0242 31.873 28.0136 31.8624C27.9289 31.7672 27.749 31.7355 27.5478 31.7566C27.2937 31.7884 27.0079 31.8942 26.7538 32.0847C26.6902 32.127 26.6267 32.1799 26.5738 32.2328C26.4044 32.3915 26.2879 32.5714 26.2456 32.7302C26.2138 32.8466 26.2138 32.9418 26.2668 33.0159C26.2668 33.0265 26.2773 33.0265 26.2879 33.037C26.3726 33.1323 26.5526 33.164 26.7538 33.1429C27.0079 33.1111 27.2937 33.0053 27.5478 32.8148C27.6113 32.7725 27.6748 32.7196 27.7278 32.6667C27.8972 32.5079 28.0136 32.328 28.056 32.1693C28.0877 32.0529 28.0877 31.9471 28.0348 31.8836ZM9.57081 3.16402C10.1108 3.16402 10.7036 3.28042 11.3283 3.48148C11.6988 3.59788 12.08 3.75661 12.4823 3.94709C12.7999 2.79365 13.1916 1.8836 13.6575 1.28042C13.6469 1.26984 13.6469 1.25926 13.6363 1.23809C12.1753 1.61905 10.7883 2.20106 9.51787 2.93122C9.53905 3.00529 9.56022 3.08995 9.57081 3.16402ZM2.62563 21.418C1.86336 20.5291 1.29165 19.5979 0.942277 18.6455C1.04815 20.7196 1.52457 22.6878 2.29743 24.5079C2.30802 24.5079 2.32919 24.5079 2.33978 24.4974C2.33978 24.455 2.35037 24.4127 2.35037 24.3704C2.4033 23.9365 2.55152 23.4815 2.79503 22.9947C2.78444 22.9841 2.77385 22.9735 2.76327 22.963C2.54094 22.7407 2.41389 22.4444 2.41389 22.1058C2.4033 21.8519 2.488 21.6085 2.62563 21.418ZM4.15019 21.0265C4.6372 20.4656 5.2089 19.8836 5.87589 19.3016C4.23488 18.5079 2.95384 17.7354 2.08569 17.037C1.82101 16.8254 1.58809 16.6138 1.40811 16.4127C1.28107 16.4762 1.15402 16.5185 1.02697 16.5079C1.04815 18.0741 1.7469 19.6296 2.9856 21.0688C3.16558 20.9524 3.38791 20.8889 3.62083 20.8889C3.80081 20.8995 3.98079 20.9418 4.15019 21.0265ZM4.65837 22.709C5.42064 23.3333 6.28879 23.9153 7.24164 24.455C7.32633 23.1217 7.52749 21.7037 7.86628 20.2011C7.33692 19.9788 6.82874 19.7566 6.35231 19.5344C5.64297 20.1481 5.03951 20.7513 4.53132 21.3333C4.7113 21.545 4.81718 21.8095 4.81718 22.1058C4.81718 22.328 4.76424 22.5291 4.65837 22.709ZM7.19929 26.1905C7.19929 26.1164 7.19929 26.0529 7.19929 25.9788C7.19929 25.6614 7.19929 25.3333 7.20987 24.9947C6.14057 24.4127 5.17714 23.7672 4.33017 23.0794C4.12901 23.2275 3.88551 23.3122 3.61024 23.3122C3.47261 23.3122 3.33497 23.291 3.21852 23.2487C3.01736 23.672 2.89031 24.0635 2.84797 24.4339C2.83738 24.4868 2.83738 24.5397 2.83738 24.582C2.86914 24.5926 2.9009 24.6138 2.93266 24.6243C3.18675 24.7619 3.44085 24.9947 3.63141 25.3122C3.82198 25.619 3.92786 25.9577 3.93844 26.2434C3.93844 26.2963 3.93844 26.3492 3.92786 26.4021C4.16077 26.5291 4.44663 26.6349 4.76424 26.7302C5.24066 26.8677 5.7912 26.9524 6.39466 26.9947C6.4476 26.7936 6.55347 26.6243 6.70169 26.4762C6.82874 26.3492 7.00872 26.2434 7.19929 26.1905ZM8.69208 26.9524C9.40142 26.8889 10.1531 26.7831 10.9471 26.6349C9.79314 26.2328 8.70266 25.7672 7.69688 25.2487C7.6863 25.4921 7.6863 25.7354 7.69688 25.9683C7.69688 26.0317 7.69688 26.0847 7.69688 26.1481C7.97215 26.1799 8.21565 26.3069 8.40622 26.4974C8.53327 26.6243 8.62855 26.7831 8.69208 26.9524ZM13.001 25.5238C12.8211 24.6984 12.6517 23.8413 12.5035 22.9418C11.8365 22.9206 11.2965 22.3704 11.2965 21.6931C11.2965 21.6402 11.2965 21.5767 11.3071 21.5238C10.2484 21.1429 9.25319 20.7619 8.33211 20.3915C7.99332 21.9153 7.79217 23.3651 7.71806 24.709C8.97793 25.3757 10.386 25.9683 11.9106 26.4444C11.9529 26.4339 12.0059 26.4233 12.0482 26.4127C12.1329 26.2328 12.2494 26.0741 12.387 25.9259C12.567 25.7566 12.7681 25.619 13.001 25.5238ZM14.6526 25.7249L14.7268 25.7037C14.1656 25.037 13.6363 24.3598 13.1175 23.6614C13.234 24.2645 13.3504 24.8571 13.4775 25.418C13.5304 25.418 13.5939 25.4074 13.6469 25.4074C14.0174 25.4074 14.3668 25.5238 14.6526 25.7249ZM15.4043 27.3016L15.4784 27.3122C15.7219 27.3545 15.9655 27.3968 16.209 27.4392C16.2301 27.4392 16.2513 27.4497 16.2725 27.4497C15.8702 27.0265 15.4679 26.582 15.0655 26.1058H15.0444C15.2667 26.4021 15.4043 26.7725 15.4043 27.1746C15.4149 27.2169 15.4149 27.2593 15.4043 27.3016ZM14.3562 28.7937C14.8115 30.2434 15.2985 31.4709 15.8066 32.4339C15.8384 32.4868 15.8596 32.5397 15.8913 32.5926C16.9501 31.9894 18.0194 31.1429 19.0675 30.0847C18.337 29.4815 17.5853 28.7936 16.8336 28.0212C16.6007 27.9894 16.3678 27.9577 16.1348 27.9259C15.8913 27.8836 15.6372 27.8413 15.3937 27.7989L15.309 27.7884C15.2244 28.0317 15.0761 28.254 14.8961 28.4339C14.7373 28.582 14.5574 28.709 14.3562 28.7937ZM7.91921 28.4974C8.08861 29.418 8.3427 30.2434 8.68149 30.9418C9.04145 31.6825 9.4967 32.2857 10.0366 32.7302C10.3543 32.582 10.8413 32.5926 11.2965 32.7831C11.7412 32.9735 12.0376 33.2804 12.1011 33.5767C12.2705 33.5979 12.4399 33.5979 12.6093 33.5979C13.5198 33.5873 14.4833 33.3122 15.4573 32.8148C15.4255 32.7619 15.4043 32.709 15.3726 32.6561C14.8538 31.672 14.3456 30.4127 13.8904 28.9312C13.8057 28.9418 13.7316 28.9524 13.6469 28.9524C13.1599 28.9524 12.7152 28.7513 12.3976 28.4339C12.08 28.1164 11.8788 27.672 11.8788 27.1852C11.8788 27.1111 11.8788 27.0265 11.8894 26.9524C10.7883 27.1958 9.72962 27.3545 8.7556 27.4497C8.73442 27.746 8.60738 28.0106 8.40622 28.2011C8.26859 28.328 8.0992 28.4339 7.91921 28.4974ZM3.63141 27.0053C4.29841 28.0317 5.06068 28.9841 5.92883 29.8413C6.81815 30.7302 7.81334 31.5238 8.88264 32.2011C8.64973 31.8836 8.43798 31.5344 8.24742 31.1534C7.87686 30.4021 7.61219 29.5238 7.4322 28.5397C7.14635 28.5079 6.89226 28.381 6.6911 28.1905C6.50053 28.0106 6.38408 27.7566 6.34173 27.4921C5.7065 27.4497 5.1242 27.3545 4.61602 27.2169C4.28782 27.1217 4.00197 27.0159 3.74787 26.8783C3.71611 26.9206 3.67376 26.963 3.63141 27.0053ZM16.7171 34.5714C16.3784 34.2434 16.029 33.7989 15.7008 33.2381C14.7585 33.7249 13.8163 34.0106 12.9164 34.0741C14.0915 34.4444 15.3302 34.6878 16.6007 34.7936C16.6324 34.709 16.6748 34.6455 16.7171 34.5714ZM19.0569 34.328C19.0781 34.3069 19.0993 34.2857 19.1098 34.2645C19.6604 33.6508 20.1156 32.5608 20.4544 31.1429C20.1262 30.9101 19.7874 30.6561 19.438 30.381C18.3582 31.4815 17.2359 32.3704 16.1243 33.0053C16.4419 33.5344 16.7701 33.9471 17.0877 34.254C17.3312 34.1164 17.6594 34.0423 18.0088 34.0423C18.3793 34.0423 18.7181 34.1376 18.9616 34.2751C19.004 34.2963 19.0251 34.3069 19.0569 34.328ZM27.9713 31.1323C28.0136 31.037 28.0454 30.9418 28.0772 30.836C28.3948 29.8624 28.4265 28.6138 28.2148 27.1746C26.2244 27.8307 23.9164 28.2222 21.439 28.2751C21.3331 29.2381 21.1849 30.127 21.0049 30.9312C22.0425 31.6402 23.0271 32.1376 23.9164 32.4339C24.5199 32.6349 25.081 32.7302 25.5786 32.7302C25.5892 32.6772 25.5998 32.6138 25.6104 32.5608C25.6845 32.2963 25.8644 32.0106 26.1185 31.7778C26.1926 31.7037 26.2668 31.6402 26.362 31.5767C26.7114 31.3122 27.1137 31.164 27.4737 31.1217C27.6537 31.0899 27.8125 31.1005 27.9713 31.1323ZM34.2389 13.4497C34.0483 13.9365 33.7625 14.4656 33.3813 15.0053C34.2389 16.0741 34.8318 17.1958 35.0964 18.3492C35.107 18.1587 35.107 17.9577 35.107 17.7566C35.107 16.254 34.9165 14.7936 34.5459 13.3968C34.44 13.4392 34.3342 13.4497 34.2389 13.4497ZM32.8943 10.5079C32.6614 10.381 32.3861 10.2751 32.0685 10.1799C31.2004 9.93651 30.1099 9.85185 28.8606 9.91534C28.7971 10.328 28.4795 10.6561 28.0666 10.7407C28.0666 10.7936 28.056 10.8571 28.056 10.9101C29.337 11.5661 30.4699 12.3069 31.4545 13.1005C32.0473 13.5873 32.5767 14.0952 33.0425 14.6243C33.3602 14.1693 33.5931 13.7354 33.7519 13.3333C33.5084 13.2063 33.286 12.9841 33.1166 12.709C33.0002 12.5185 32.9049 12.3175 32.8308 12.0952C32.7567 11.873 32.7143 11.6508 32.7038 11.4286C32.6932 11.0899 32.7461 10.7619 32.8943 10.5079ZM18.0088 0.179893C19.7239 0.179893 21.3861 0.423279 22.953 0.888888C23.3871 0.634919 24.1176 0.624338 24.7951 0.910052C25.4304 1.1746 25.8539 1.62963 25.9174 2.05291C27.6007 2.89947 29.1253 4.01058 30.4381 5.32275C31.7933 6.67725 32.9261 8.24339 33.7836 9.97884C34.0377 9.98942 34.3024 10.0952 34.5353 10.2857C34.8212 10.5185 35.0647 10.8889 35.2129 11.3228C35.3505 11.7672 35.3717 12.2011 35.2764 12.5608C35.2235 12.7831 35.1176 12.9735 34.98 13.1217C35.3823 14.6032 35.594 16.1481 35.594 17.7566C35.594 18.2751 35.5729 18.7936 35.5305 19.3016C35.9011 19.5132 36.0811 20.1587 35.9434 20.8042C35.8164 21.3968 35.4776 21.8095 35.1176 21.8413C34.3553 25.0476 32.7038 27.9153 30.4487 30.1799C29.8982 30.7302 29.3053 31.2487 28.6912 31.7143C28.7547 31.9048 28.7547 32.1164 28.6912 32.328C28.6171 32.5926 28.4371 32.8783 28.183 33.1217C28.1089 33.1958 28.0348 33.2593 27.9395 33.3228C27.5902 33.5873 27.1878 33.7355 26.8279 33.7778C26.4256 33.8201 26.0656 33.7355 25.8221 33.4921C23.8635 34.4656 21.6931 35.0899 19.4063 35.2698C19.3322 35.4603 19.1734 35.6296 18.9616 35.746C18.7075 35.8942 18.3687 35.9788 18.0088 35.9788C17.6382 35.9788 17.2994 35.8836 17.0559 35.746C16.8442 35.619 16.6854 35.4603 16.6113 35.2698C14.9067 35.1323 13.2657 34.7619 11.7412 34.1799C11.4236 34.3175 10.9577 34.2963 10.5131 34.1164C10.0366 33.9153 9.72962 33.5661 9.69786 33.2487C8.17331 32.4339 6.78639 31.3968 5.56886 30.1799C4.65837 29.2698 3.84316 28.254 3.14441 27.1534C2.9856 27.1534 2.8162 27.1005 2.6574 27.0159C2.4033 26.8783 2.14921 26.6455 1.95864 26.328C1.76807 26.0212 1.6622 25.6825 1.65162 25.3968C1.64103 25.1323 1.71514 24.8995 1.86336 24.7302C0.942277 22.6032 0.423506 20.2434 0.423506 17.7672C0.423506 17.2593 0.44468 16.7513 0.487029 16.254C0.14824 15.8836 1.98036e-05 15.164 0.14824 14.4339C0.285873 13.7672 0.645836 13.2698 1.03756 13.1111C1.85277 10.127 3.44085 7.46032 5.56886 5.33333C5.84413 5.0582 6.14057 4.78307 6.43701 4.51852C6.39466 4.31746 6.41584 4.09524 6.47936 3.87301C6.58523 3.52381 6.82874 3.15344 7.1887 2.85714C7.53808 2.56085 7.94039 2.38095 8.31094 2.33862C8.64973 2.2963 8.96734 2.35979 9.21085 2.55026C10.5766 1.75661 12.0694 1.14286 13.6363 0.74074C13.8268 0.370369 14.3668 0.074073 15.002 0.0317449C15.4361 0.0105809 15.8172 0.116401 16.0607 0.296295C16.7066 0.222221 17.3524 0.179893 18.0088 0.179893ZM5.69591 9.75661C5.68532 9.7037 5.68532 9.64021 5.68532 9.5873C5.68532 9.16402 5.95 8.79365 6.32055 8.6455C6.19351 7.39682 6.25703 6.28571 6.55347 5.39682C6.59582 5.25926 6.64875 5.13227 6.70169 5.00529C6.6911 4.99471 6.68052 4.98413 6.66993 4.97354C6.41584 5.19577 6.16175 5.43915 5.91824 5.67196C3.88551 7.71428 2.36096 10.2645 1.55633 13.1111C2.44565 11.7566 3.87492 10.6243 5.69591 9.75661ZM6.64875 10.6032C6.34173 10.5926 6.06646 10.4339 5.88648 10.2116C4.1396 11.0476 2.77385 12.1376 1.93747 13.4286C2.01158 13.5344 2.0751 13.6508 2.12804 13.7884C3.32439 13.4497 5.23008 13.418 7.56984 13.6402C7.1887 12.582 6.87109 11.5661 6.64875 10.6032ZM7.70747 9.48148C7.70747 9.51323 7.71806 9.55555 7.71806 9.5873C7.71806 9.98942 7.48514 10.3386 7.13576 10.5079C7.36868 11.5132 7.69688 12.582 8.12037 13.6931C8.70266 13.7566 9.31672 13.8413 9.95195 13.9259C10.4601 12.7619 11.0213 11.6508 11.6247 10.6032C11.6459 10.1481 11.6671 9.69312 11.6882 9.25926C11.6988 9.03704 11.72 8.81481 11.7412 8.59259C10.2907 8.77248 8.93558 9.06878 7.70747 9.48148ZM6.80756 8.58201C7.11459 8.61376 7.37927 8.78307 7.54866 9.02645C8.8403 8.59259 10.2696 8.28571 11.7941 8.09524C11.9212 6.74074 12.1117 5.50264 12.3658 4.44444C11.9529 4.24338 11.5612 4.08465 11.1906 3.95767C10.5978 3.76719 10.0472 3.66137 9.56022 3.66137C9.54964 3.69312 9.53905 3.72487 9.53905 3.75661C9.43318 4.10582 9.18967 4.46561 8.85088 4.75132L8.82971 4.77249C8.48033 5.06878 8.07802 5.24868 7.70747 5.291C7.50631 5.31217 7.32633 5.30159 7.15694 5.25926C7.11459 5.3545 7.08283 5.44973 7.05107 5.55555C6.74404 6.38095 6.68052 7.40741 6.80756 8.58201Z" fill="white"></path></mask><g mask="url(#mask0_7_199)"><path d="M36.0811 0H3.05176e-05V36H36.0811V0Z" fill="url(#paint1_linear_7_199)"></path></g><path d="M114.161 25.291C114.055 25.0582 113.918 24.8466 113.748 24.6455L103.722 11.2487C103.257 10.6138 102.653 10.1164 101.912 9.76719C101.171 9.4074 100.387 9.22751 99.5616 9.22751C98.6829 9.22751 97.8571 9.42857 97.0842 9.8201C96.3114 10.2222 95.6973 10.7302 95.2315 11.3651L85.2054 24.8466C84.9302 25.1534 84.7925 25.545 84.7925 26.0423C84.7925 26.5926 84.9831 27.0582 85.3748 27.4391C85.756 27.8201 86.2218 28.0212 86.7723 28.0212C87.3758 28.0212 87.884 27.7778 88.2969 27.2804L97.9947 14.4233C98.1641 14.2011 98.3864 13.9577 98.6723 13.7037C98.9582 13.4391 99.2546 13.3122 99.5616 13.3122C99.8687 13.3122 100.155 13.4497 100.451 13.7037C100.737 13.9682 100.98 14.2011 101.171 14.4233L110.784 27.2487C111.165 27.7672 111.694 28.0317 112.351 28.0317C112.901 28.0317 113.367 27.8413 113.748 27.4497C114.13 27.0688 114.331 26.6032 114.331 26.0529C114.331 25.7778 114.278 25.5238 114.161 25.291Z" fill="url(#paint2_linear_7_199)"></path><path d="M149.618 10.6984C149.131 9.72487 147.945 9.34391 146.971 9.83069L137.951 14.3915C136.977 14.8783 136.585 16.0741 137.083 17.0476C137.432 17.7354 138.12 18.127 138.84 18.127C139.136 18.127 139.443 18.0529 139.729 17.9153L148.75 13.3545C149.724 12.8677 150.115 11.672 149.618 10.6984Z" fill="url(#paint3_linear_7_199)"></path><path d="M134.002 17.196L119.264 9.83089C118.29 9.34412 117.105 9.73565 116.618 10.7198C116.131 11.6933 116.522 12.8785 117.496 13.3653L131.228 20.233V25.6722C131.228 26.7621 132.117 27.6404 133.208 27.6404C134.298 27.6404 135.177 26.7515 135.177 25.6722V19.2171C135.177 18.9314 135.113 18.6563 134.997 18.4129C134.859 17.905 134.52 17.4605 134.002 17.196Z" fill="url(#paint4_linear_7_199)"></path><path d="M73.3796 23.7566H47.1552C46.6576 23.7566 46.3823 23.6826 46.2765 23.6614L72.6703 13.8413L73.4643 13.5132C74.4701 13.1005 75.4335 12.6243 75.4335 11.5344C75.4335 10.4445 74.5442 9.56615 73.4643 9.56615H45.7365C44.6461 9.56615 43.7673 10.455 43.7673 11.5344C43.7673 12.6243 44.6566 13.5132 45.7365 13.5132H61.4902L45.3554 19.6614C43.365 20.2222 42.031 22.2434 42.3063 24.2328C42.5286 25.8307 43.9367 27.7037 47.1446 27.7037H73.3584C74.4489 27.7037 75.3276 26.8148 75.3276 25.7355C75.3276 24.6561 74.4595 23.7566 73.3796 23.7566Z" fill="url(#paint5_linear_7_199)"></path><path d="M184.831 24.7937C184.725 24.5609 184.587 24.3492 184.418 24.1482L174.392 10.7513C173.926 10.1164 173.322 9.61905 172.581 9.26985C171.84 8.91006 171.057 8.73016 170.231 8.73016C169.352 8.73016 168.526 8.93122 167.754 9.32276C166.981 9.72487 166.367 10.2328 165.901 10.8677L155.875 24.3492C155.599 24.6561 155.462 25.0476 155.462 25.545C155.462 26.0952 155.652 26.5609 156.044 26.9418C156.425 27.3228 156.891 27.5238 157.442 27.5238C158.045 27.5238 158.553 27.2804 158.966 26.7831L168.664 13.9259C168.833 13.7037 169.056 13.4603 169.342 13.2064C169.627 12.9418 169.924 12.8148 170.231 12.8148C170.538 12.8148 170.824 12.9524 171.12 13.2064C171.406 13.4709 171.65 13.7037 171.84 13.9259L181.453 26.7513C181.834 27.2698 182.364 27.5344 183.02 27.5344C183.571 27.5344 184.037 27.3439 184.418 26.9524C184.799 26.5714 185 26.1058 185 25.5556C185 25.2804 184.947 25.0265 184.831 24.7937Z" fill="url(#paint6_linear_7_199)"></path></g><defs><linearGradient id="paint0_linear_7_199" x1="0.0925727" y1="18.0109" x2="35.9898" y2="18.0109" gradientUnits="userSpaceOnUse"><stop stop-color="#20C2E5"></stop><stop offset="1" stop-color="#2B4C84"></stop></linearGradient><linearGradient id="paint1_linear_7_199" x1="3.05176e-05" y1="18" x2="36.0815" y2="18" gradientUnits="userSpaceOnUse"><stop stop-color="#20C2E5"></stop><stop offset="1" stop-color="#2B4C84"></stop></linearGradient><linearGradient id="paint2_linear_7_199" x1="84.7912" y1="18.63" x2="114.327" y2="18.63" gradientUnits="userSpaceOnUse"><stop stop-color="#20C2E5"></stop><stop offset="1" stop-color="#2B4C84"></stop></linearGradient><linearGradient id="paint3_linear_7_199" x1="136.867" y1="13.8771" x2="149.833" y2="13.8771" gradientUnits="userSpaceOnUse"><stop stop-color="#20C2E5"></stop><stop offset="1" stop-color="#2B4C84"></stop></linearGradient><linearGradient id="paint4_linear_7_199" x1="116.406" y1="18.6302" x2="135.181" y2="18.6302" gradientUnits="userSpaceOnUse"><stop stop-color="#20C2E5"></stop><stop offset="1" stop-color="#2B4C84"></stop></linearGradient><linearGradient id="paint5_linear_7_199" x1="42.2803" y1="18.6301" x2="75.4343" y2="18.6301" gradientUnits="userSpaceOnUse"><stop stop-color="#20C2E5"></stop><stop offset="1" stop-color="#2B4C84"></stop></linearGradient><linearGradient id="paint6_linear_7_199" x1="155.462" y1="18.1304" x2="184.998" y2="18.1304" gradientUnits="userSpaceOnUse"><stop stop-color="#20C2E5"></stop><stop offset="1" stop-color="#2B4C84"></stop></linearGradient><clipPath id="clip0_7_199"><rect width="185" height="36" fill="white"></rect></clipPath></defs></svg>